<svg xmlns="http://www.w3.org/2000/svg" xmlns:xlink="http://www.w3.org/1999/xlink" version="1.1" x="0px" y="0px" viewBox="0 0 60 75" style="enable-background:new 0 0 60 60;" xml:space="preserve"><path d="M30,36.2c3.42,0,6.2-2.78,6.2-6.2s-2.78-6.2-6.2-6.2c-3.42,0-6.2,2.78-6.2,6.2S26.58,36.2,30,36.2z M30,25.8  c2.32,0,4.2,1.88,4.2,4.2c0,2.32-1.88,4.2-4.2,4.2c-2.32,0-4.2-1.88-4.2-4.2C25.8,27.68,27.68,25.8,30,25.8z"/><path d="M36.39,7c0.55,0,1-0.45,1-1s-0.45-1-1-1c-8.2,0-14.87,6.67-14.87,14.87c0,1.03,0.11,2.07,0.32,3.07  c0.1,0.47,0.51,0.79,0.98,0.79c0.07,0,0.14-0.01,0.21-0.02c0.54-0.11,0.89-0.64,0.77-1.18c-0.18-0.87-0.28-1.76-0.28-2.66  C23.52,12.77,29.29,7,36.39,7z"/><path d="M18.25,7.8c-0.39-0.39-1.02-0.39-1.41,0c-2.81,2.81-4.36,6.54-4.36,10.52s1.55,7.71,4.36,10.52  c0.73,0.73,1.54,1.39,2.4,1.95c0.17,0.11,0.36,0.16,0.55,0.16c0.33,0,0.65-0.16,0.84-0.45c0.3-0.46,0.17-1.08-0.29-1.38  c-0.74-0.48-1.44-1.05-2.08-1.69c-2.43-2.43-3.77-5.66-3.77-9.1s1.34-6.67,3.77-9.1C18.65,8.83,18.65,8.19,18.25,7.8z"/><path d="M19.87,38.48c1.04,0,2.07-0.11,3.07-0.32c0.54-0.11,0.89-0.64,0.77-1.18c-0.11-0.54-0.64-0.89-1.18-0.77  c-0.87,0.18-1.76,0.27-2.66,0.27C12.77,36.48,7,30.71,7,23.61c0-0.55-0.45-1-1-1s-1,0.45-1,1C5,31.81,11.67,38.48,19.87,38.48z"/><path d="M9.22,41.74c-0.39-0.39-1.02-0.39-1.41,0s-0.39,1.02,0,1.41c2.9,2.9,6.71,4.35,10.51,4.35c3.81,0,7.62-1.45,10.52-4.35  c0.73-0.73,1.39-1.54,1.95-2.4c0.3-0.46,0.17-1.08-0.29-1.38c-0.46-0.3-1.08-0.17-1.38,0.29c-0.49,0.74-1.05,1.44-1.69,2.07  C22.4,46.76,14.23,46.76,9.22,41.74z"/><path d="M36.98,36.29c-0.54,0.11-0.89,0.64-0.77,1.18c0.18,0.87,0.27,1.77,0.27,2.66c0,7.1-5.77,12.87-12.87,12.87  c-0.55,0-1,0.45-1,1s0.45,1,1,1c8.2,0,14.87-6.67,14.87-14.87c0-1.03-0.11-2.06-0.32-3.07C38.05,36.52,37.52,36.17,36.98,36.29z"/><path d="M41.74,52.2c0.2,0.2,0.45,0.29,0.71,0.29s0.51-0.1,0.71-0.29c5.8-5.8,5.8-15.23,0-21.03c-0.73-0.73-1.53-1.38-2.39-1.95  c-0.46-0.3-1.08-0.17-1.38,0.29c-0.3,0.46-0.17,1.08,0.29,1.38c0.74,0.49,1.44,1.05,2.07,1.69c5.02,5.02,5.02,13.18,0,18.2  C41.35,51.17,41.35,51.81,41.74,52.2z"/><path d="M40.13,21.52c-1.03,0-2.07,0.11-3.07,0.32c-0.54,0.11-0.89,0.64-0.77,1.18s0.64,0.89,1.18,0.77  c0.87-0.18,1.76-0.27,2.66-0.27c7.1,0,12.87,5.77,12.87,12.87c0,0.55,0.45,1,1,1s1-0.45,1-1C55,28.19,48.33,21.52,40.13,21.52z"/><path d="M50.78,18.26c0.39,0.39,1.02,0.39,1.41,0s0.39-1.02,0-1.41c-5.8-5.8-15.23-5.8-21.03,0c-0.73,0.73-1.39,1.54-1.95,2.4  c-0.3,0.46-0.17,1.08,0.29,1.38c0.17,0.11,0.36,0.16,0.54,0.16c0.33,0,0.65-0.16,0.84-0.45c0.48-0.74,1.05-1.44,1.68-2.07  C37.6,13.24,45.76,13.24,50.78,18.26z"/></svg>