<svg xmlns="http://www.w3.org/2000/svg" xmlns:xlink="http://www.w3.org/1999/xlink" version="1.1" x="0px" y="0px" viewBox="0 0 60 75" style="enable-background:new 0 0 60 60;" xml:space="preserve"><path d="M53.43,5.18L27.8,22.85l1.7-3.69c0.18-0.39,0.09-0.85-0.22-1.14c-0.31-0.29-0.77-0.36-1.15-0.16  c-10.38,5.46-16.67,9.26-18.7,11.29C6.58,32,5,35.81,5,39.85s1.57,7.85,4.43,10.71C12.29,53.42,16.1,55,20.14,55c0,0,0,0,0.01,0  c4.04,0,7.85-1.58,10.71-4.44c2.03-2.03,5.72-8.14,11.29-18.67c0.2-0.38,0.14-0.84-0.16-1.15c-0.3-0.31-0.76-0.4-1.14-0.22  l-3.69,1.7L54.82,6.57c0.27-0.4,0.23-0.93-0.12-1.27C54.36,4.95,53.83,4.9,53.43,5.18z M33.44,34.07c-0.26,0.37-0.23,0.87,0.06,1.21  c0.29,0.34,0.77,0.45,1.18,0.26l4.3-1.98c-5.74,10.69-8.35,14.39-9.54,15.58C26.96,51.63,23.66,53,20.15,53c0,0,0,0,0,0  c-3.51,0-6.81-1.37-9.29-3.85C8.37,46.67,7,43.37,7,39.85s1.37-6.82,3.85-9.3c1.2-1.2,4.92-3.83,15.6-9.54l-1.99,4.32  c-0.19,0.41-0.08,0.89,0.26,1.18c0.35,0.29,0.84,0.31,1.21,0.06L50.09,9.91L33.44,34.07z"/><path d="M25.15,40.41c-0.56-0.49-1.08-0.96-1.41-1.5c-0.18-0.31-0.42-1.71-0.57-2.55c-0.17-1-0.34-1.95-0.55-2.59  c-0.15-0.45-0.46-1.39-1.36-1.76c-0.73-0.3-1.61-0.12-2.29,0.49c-0.32,0.29-0.55,0.62-0.76,0.91c-0.07,0.1-0.14,0.2-0.21,0.29  c-0.61,0.8-1.57,1.36-2.56,1.5c-0.18,0.03-0.36,0.04-0.55,0.05c-0.35,0.03-0.75,0.06-1.15,0.16c-0.94,0.23-1.63,0.8-1.92,1.57  c-0.29,0.78-0.06,1.57,0.07,2.04c0.6,2.06,1.28,4.23,2.53,6.17c1.43,2.22,3.4,3.73,5.55,4.26c0.54,0.13,1.08,0.19,1.62,0.19  c2.08,0,4.06-0.96,5.14-2.59c0.74-1.13,0.98-2.44,0.66-3.61c-0.32-1.16-1.15-2.03-1.92-2.72L25.15,40.41z M25.07,45.93  c-0.88,1.34-2.82,1.99-4.61,1.55c-1.65-0.4-3.19-1.61-4.34-3.4c-1.11-1.72-1.74-3.73-2.29-5.64c-0.06-0.22-0.18-0.62-0.12-0.79  c0.04-0.1,0.23-0.25,0.52-0.32c0.24-0.06,0.52-0.08,0.82-0.11c0.22-0.02,0.45-0.04,0.67-0.07c1.52-0.21,2.94-1.04,3.87-2.26  c0.09-0.12,0.17-0.24,0.26-0.35c0.15-0.22,0.3-0.43,0.45-0.56c0.09-0.08,0.19-0.12,0.17-0.15c0.04,0.04,0.12,0.17,0.25,0.56  c0.16,0.5,0.32,1.41,0.48,2.3c0.28,1.64,0.48,2.67,0.82,3.24c0.49,0.81,1.16,1.4,1.8,1.97l0.32,0.28c0.55,0.5,1.15,1.1,1.33,1.77  C25.64,44.56,25.49,45.29,25.07,45.93z"/></svg>