<svg xmlns="http://www.w3.org/2000/svg" xmlns:xlink="http://www.w3.org/1999/xlink" version="1.1" x="0px" y="0px" viewBox="0 0 60 75" style="enable-background:new 0 0 60 60;" xml:space="preserve"><path d="M40.02,13.32C39.13,8.59,34.98,5,30,5c-4.16,0-7.75,2.51-9.33,6.09c-0.01,0.02-0.02,0.04-0.03,0.06  c-0.3,0.69-0.52,1.41-0.66,2.17c-1.57,0.59-2.66,2.11-2.66,3.83v12.01c-1.37,2.71-2.5,6.15-2.8,10.39  c-0.06,0.81,0.23,1.63,0.79,2.23c0.57,0.61,1.37,0.96,2.2,0.96c1.43,0,2.67-1.02,2.93-2.42l0.03-0.13c1.06-5.58,2.22-8.21,3.23-9.36  l-1.85,23.1c-0.02,0.28,0.07,0.55,0.26,0.76C22.3,54.88,22.57,55,22.85,55H27c0.45,0,0.85-0.3,0.97-0.74L30,46.62l2.03,7.64  C32.15,54.7,32.55,55,33,55h4.15c0.28,0,0.55-0.12,0.73-0.32c0.19-0.21,0.29-0.48,0.26-0.76l-1.85-23.11  c1.01,1.15,2.18,3.79,3.23,9.37l0.02,0.13c0.27,1.4,1.5,2.42,2.93,2.42c0.83,0,1.63-0.35,2.2-0.96c0.56-0.6,0.85-1.41,0.79-2.23  c-0.3-4.25-1.43-7.68-2.8-10.39V17.15C42.68,15.42,41.59,13.9,40.02,13.32z M40.68,25.83c-1.25-1.74-2.46-2.95-3.26-3.65  c1.59-1.69,2.61-3.92,2.75-6.39c0.32,0.37,0.51,0.85,0.51,1.36V25.83z M38.2,15.2c0,0.95-0.17,1.86-0.47,2.72  c-5.07,1.18-10.38,1.18-15.46,0c-0.3-0.85-0.47-1.76-0.47-2.72c0-0.95,0.17-1.87,0.47-2.72c5.07-1.18,10.39-1.18,15.46,0  C38.03,13.34,38.2,14.25,38.2,15.2z M23.54,20.23c2.13,0.39,4.3,0.58,6.46,0.58c2.17,0,4.33-0.2,6.46-0.58  c-1.5,1.93-3.84,3.17-6.46,3.17C27.37,23.4,25.04,22.16,23.54,20.23z M30,7c2.63,0,4.96,1.25,6.46,3.17  c-4.26-0.77-8.66-0.77-12.93,0C25.04,8.24,27.37,7,30,7z M19.32,17.15c0-0.51,0.19-0.99,0.51-1.36c0.07,1.22,0.35,2.38,0.81,3.45  c0.01,0.02,0.02,0.04,0.03,0.06c0.47,1.07,1.12,2.03,1.91,2.87c-0.8,0.7-2.01,1.92-3.26,3.65V17.15z M43.22,40.41  c-0.19,0.21-0.45,0.32-0.73,0.32c-0.47,0-0.88-0.33-0.97-0.79l-0.02-0.13c-0.99-5.24-2.6-11.32-6.22-11.77  c-0.3-0.04-0.6,0.06-0.81,0.27c-0.22,0.21-0.33,0.5-0.31,0.8L36.07,53h-2.3l-2.8-10.53c-0.12-0.44-0.51-0.74-0.97-0.74  s-0.85,0.3-0.97,0.74L26.23,53h-2.3l1.91-23.88c0-0.04-0.01-0.07-0.01-0.1c0-0.03,0.01-0.07,0.01-0.1c0-0.03-0.02-0.06-0.03-0.09  c-0.02-0.07-0.04-0.13-0.06-0.19c-0.03-0.06-0.06-0.11-0.09-0.17c-0.03-0.05-0.07-0.09-0.11-0.13c-0.05-0.05-0.1-0.09-0.17-0.13  c-0.04-0.03-0.09-0.05-0.14-0.07c-0.07-0.03-0.14-0.05-0.22-0.06c-0.03,0-0.05-0.02-0.08-0.02c-0.03,0-0.06,0.01-0.09,0.01  c-0.04,0-0.07-0.01-0.11-0.01c-3.62,0.45-5.23,6.52-6.22,11.76l-0.03,0.13c-0.09,0.46-0.5,0.79-0.97,0.79  c-0.28,0-0.54-0.11-0.73-0.32c-0.19-0.2-0.28-0.46-0.26-0.72c0.66-9.44,5.88-14.69,7.59-16.18c1.67,1.18,3.7,1.89,5.89,1.89  c2.2,0,4.23-0.7,5.89-1.89c1.71,1.48,6.93,6.74,7.59,16.18C43.5,39.96,43.41,40.21,43.22,40.41z"/></svg>