<svg xmlns="http://www.w3.org/2000/svg" xmlns:xlink="http://www.w3.org/1999/xlink" version="1.1" x="0px" y="0px" viewBox="0 0 60 75" style="enable-background:new 0 0 60 60;" xml:space="preserve"><path d="M33.3,17.08h2.64c0.55,0,1-0.45,1-1s-0.45-1-1-1H33.3c-0.55,0-1,0.45-1,1S32.75,17.08,33.3,17.08z"/><path d="M27.7,16.08c0-0.55-0.45-1-1-1h-2.64c-0.55,0-1,0.45-1,1s0.45,1,1,1h2.64C27.25,17.08,27.7,16.63,27.7,16.08z"/><path d="M26.35,21.49c-0.25,0.49-0.05,1.09,0.44,1.34c1,0.51,2.11,0.77,3.21,0.77c1.1,0,2.21-0.26,3.21-0.77  c0.49-0.25,0.69-0.85,0.44-1.35C33.4,21,32.79,20.8,32.3,21.05c-1.44,0.73-3.16,0.73-4.61,0C27.2,20.8,26.6,21,26.35,21.49z"/><path d="M45.54,50.08c0.19,0.2,0.45,0.31,0.73,0.31h5.23c0.55,0,1-0.45,1-1c0-11.35-4.79-17.61-13.48-17.61h-2.61v-3.47h2.84  c2.9,0,5.25-2.36,5.25-5.25v-8.18c0-2.9-2.36-5.25-5.25-5.25h-1.52V8.44C37.73,6.54,36.19,5,34.3,5H25.7c-1.9,0-3.44,1.54-3.44,3.44  v1.19h-1.52c-2.9,0-5.25,2.36-5.25,5.25v8.18c0,2.9,2.36,5.25,5.25,5.25h2.84v3.47h-1.5c-0.25,0-0.5,0.03-0.74,0.07  c-0.11-0.05-0.24-0.07-0.37-0.07c-8.69,0-13.48,6.25-13.48,17.61c0,0.55,0.45,1,1,1h5.23c0.27,0,0.54-0.11,0.73-0.31  c0.19-0.2,0.29-0.47,0.27-0.74c-0.09-1.72,0.1-6.64,2.06-8.7c0.36-0.38,0.77-0.63,1.22-0.78v11.07c0,2.25,1.83,4.07,4.07,4.07h15.84  c2.25,0,4.07-1.83,4.07-4.07V39.86c0.45,0.15,0.86,0.4,1.22,0.78c1.96,2.06,2.15,6.98,2.06,8.7C45.26,49.61,45.36,49.88,45.54,50.08  z M24.27,8.44C24.27,7.64,24.91,7,25.7,7h8.59c0.79,0,1.44,0.64,1.44,1.44v1.19H24.27V8.44z M17.49,23.06v-8.18  c0-1.79,1.46-3.25,3.25-3.25h2.52h13.46h2.52c1.79,0,3.25,1.46,3.25,3.25v8.18c0,1.79-1.46,3.25-3.25,3.25h-3.84H24.58h-3.84  C18.95,26.31,17.49,24.85,17.49,23.06z M25.58,28.31h8.83v3.47h-8.83V28.31z M15.33,39.27c-2.29,2.41-2.6,7.04-2.62,9.13h-3.2  c0.17-6.2,2.01-13.04,8.95-14.36c-0.28,0.55-0.45,1.17-0.45,1.83v1.93C16.99,37.98,16.09,38.47,15.33,39.27z M39.99,50.93  c0,1.14-0.93,2.07-2.07,2.07H22.08c-1.14,0-2.07-0.93-2.07-2.07V35.86c0-1.14,0.93-2.07,2.07-2.07h2.5h10.83h3.61  c0.53,0,0.97,0.43,0.97,0.97V50.93z M44.67,39.27c-0.76-0.8-1.65-1.29-2.68-1.48v-3.03c0-0.23-0.03-0.44-0.08-0.66  c6.64,1.49,8.41,8.21,8.58,14.3h-3.2C47.27,46.31,46.95,41.68,44.67,39.27z"/></svg>