<svg xmlns="http://www.w3.org/2000/svg" xmlns:xlink="http://www.w3.org/1999/xlink" version="1.1" x="0px" y="0px" viewBox="0 0 60 75" style="enable-background:new 0 0 60 60;" xml:space="preserve"><path d="M8.12,30.58c0.31,0.22,0.72,0.25,1.05,0.08l3.91-2.06l3.91,2.06c0.15,0.08,0.31,0.11,0.46,0.11c0.21,0,0.41-0.06,0.59-0.19  c0.31-0.22,0.46-0.6,0.4-0.98l-0.75-4.35l3.16-3.08c0.27-0.27,0.37-0.66,0.25-1.03c-0.12-0.36-0.43-0.63-0.81-0.68l-4.37-0.64  l-1.96-3.96c-0.34-0.68-1.46-0.68-1.79,0l-1.96,3.96l-4.37,0.64c-0.38,0.05-0.69,0.32-0.81,0.68C4.93,21.5,5.03,21.9,5.3,22.16  l3.16,3.08L7.72,29.6C7.65,29.98,7.81,30.36,8.12,30.58z M8.15,22.15l2.89-0.42c0.33-0.05,0.61-0.25,0.75-0.55l1.29-2.62l1.29,2.62  c0.15,0.3,0.43,0.5,0.75,0.55l2.89,0.42l-2.09,2.04c-0.24,0.23-0.34,0.56-0.29,0.89l0.49,2.87l-2.58-1.36  c-0.29-0.15-0.64-0.15-0.93,0l-2.58,1.36l0.49-2.88c0.06-0.32-0.05-0.66-0.29-0.89L8.15,22.15z"/><path d="M54.95,26.86c-0.12-0.36-0.43-0.63-0.81-0.68l-7.68-1.12l-3.44-6.96c-0.17-0.34-0.52-0.56-0.9-0.56s-0.73,0.22-0.9,0.56  l-3.44,6.96l-7.68,1.12c-0.38,0.05-0.69,0.32-0.81,0.68c-0.12,0.36-0.02,0.76,0.25,1.02l5.56,5.42l-1.31,7.65  c-0.06,0.38,0.09,0.75,0.4,0.98c0.31,0.22,0.72,0.25,1.05,0.08l6.87-3.61L49,42.02c0.15,0.08,0.31,0.11,0.47,0.11  c0.21,0,0.41-0.06,0.59-0.19c0.31-0.22,0.46-0.6,0.4-0.98l-1.31-7.65l5.56-5.42C54.97,27.62,55.07,27.23,54.95,26.86z M47.36,32.24  c-0.24,0.23-0.34,0.56-0.29,0.89l1.06,6.17l-5.54-2.92c-0.29-0.15-0.64-0.15-0.93,0l-5.54,2.92l1.06-6.17  c0.06-0.32-0.05-0.66-0.29-0.88l-4.49-4.37l6.2-0.9c0.33-0.05,0.61-0.25,0.75-0.55l2.77-5.62l2.77,5.62c0.15,0.3,0.43,0.5,0.75,0.55  l6.2,0.9L47.36,32.24z"/><path d="M28.75,36.45c-0.12-0.36-0.43-0.63-0.81-0.68l-3.53-0.51l-1.58-3.2c-0.17-0.34-0.52-0.56-0.9-0.56s-0.73,0.22-0.9,0.56  l-1.58,3.2l-3.53,0.51c-0.38,0.05-0.69,0.32-0.81,0.68c-0.12,0.36-0.02,0.76,0.25,1.03l2.55,2.49l-0.6,3.51  c-0.06,0.38,0.09,0.75,0.4,0.98c0.31,0.22,0.72,0.25,1.05,0.08l3.15-1.66l3.15,1.66c0.15,0.08,0.31,0.11,0.47,0.11  c0.21,0,0.41-0.06,0.59-0.19c0.31-0.22,0.46-0.6,0.4-0.98l-0.6-3.51l2.55-2.49C28.77,37.21,28.87,36.82,28.75,36.45z M24.17,38.9  c-0.24,0.23-0.34,0.56-0.29,0.88l0.35,2.03l-1.83-0.96c-0.15-0.08-0.31-0.11-0.47-0.11s-0.32,0.04-0.47,0.11l-1.83,0.96L20,39.79  c0.06-0.32-0.05-0.66-0.29-0.89l-1.48-1.44l2.04-0.3c0.33-0.05,0.61-0.25,0.75-0.55l0.91-1.85l0.91,1.85  c0.15,0.3,0.43,0.5,0.75,0.55l2.04,0.3L24.17,38.9z"/></svg>