<svg xmlns="http://www.w3.org/2000/svg" xmlns:xlink="http://www.w3.org/1999/xlink" version="1.1" x="0px" y="0px" viewBox="0 0 60 75" style="enable-background:new 0 0 60 60;" xml:space="preserve"><path d="M30,5c-12.63,0-19.88,7.46-19.88,20.48C10.12,39.44,18.29,55,30,55s19.88-15.56,19.88-29.52C49.88,12.46,42.63,5,30,5z   M30,53c-9.36,0-17.88-13.12-17.88-27.52C12.12,9.4,23.32,7,30,7s17.88,2.4,17.88,18.48C47.88,39.88,39.35,53,30,53z"/><path d="M42.24,23.08c-0.21-0.03-5.08-0.77-7.76,1.91c-2.69,2.69-1.95,7.56-1.91,7.76c0.07,0.43,0.4,0.76,0.83,0.83  c0.08,0.01,0.77,0.12,1.75,0.12c1.71,0,4.31-0.32,6.02-2.03c2.69-2.69,1.95-7.56,1.91-7.76C43,23.49,42.66,23.15,42.24,23.08z   M39.74,30.27c-1.44,1.44-4,1.5-5.28,1.42c-0.07-1.27-0.02-3.84,1.42-5.28c1.44-1.44,4.01-1.5,5.28-1.42  C41.24,26.26,41.18,28.82,39.74,30.27z"/><path d="M26.61,33.59c0.43-0.07,0.76-0.4,0.83-0.83c0.03-0.21,0.77-5.08-1.91-7.76c-2.69-2.69-7.56-1.95-7.76-1.91  c-0.43,0.07-0.76,0.4-0.83,0.83c-0.03,0.21-0.77,5.08,1.91,7.76c1.71,1.71,4.3,2.03,6.02,2.03C25.84,33.71,26.54,33.61,26.61,33.59z   M18.84,24.99c1.27-0.07,3.83-0.02,5.28,1.42c1.44,1.44,1.5,4,1.42,5.28c-1.28,0.07-3.84,0.02-5.28-1.42S18.76,26.26,18.84,24.99z"/><path d="M35.08,41.52H24.92c-0.55,0-1,0.45-1,1s0.45,1,1,1h10.16c0.55,0,1-0.45,1-1S35.63,41.52,35.08,41.52z"/></svg>