<svg xmlns="http://www.w3.org/2000/svg" xmlns:xlink="http://www.w3.org/1999/xlink" version="1.1" x="0px" y="0px" viewBox="0 0 60 75" style="enable-background:new 0 0 60 60;" xml:space="preserve"><path d="M14.38,55c2.37,0,4.74-0.89,6.56-2.68l33.68-27.11c0.43-0.35,0.5-0.98,0.15-1.41c-0.35-0.43-0.98-0.5-1.41-0.15L23.53,47.68  c0.68-3.03-0.15-6.34-2.51-8.69c-2.36-2.36-5.66-3.18-8.69-2.51L36.35,6.63c0.35-0.43,0.28-1.06-0.15-1.41  c-0.43-0.35-1.06-0.28-1.41,0.15L7.68,39.06C5.95,40.82,5,43.15,5,45.62c0,2.51,0.98,4.86,2.75,6.63C9.58,54.08,11.98,55,14.38,55z   M9.16,40.4c1.44-1.44,3.33-2.16,5.22-2.16s3.78,0.72,5.22,2.16c2.88,2.88,2.88,7.56,0,10.44c-2.88,2.88-7.56,2.88-10.44,0  C7.77,49.45,7,47.59,7,45.62C7,43.65,7.77,41.79,9.16,40.4z"/><path d="M34.45,14.19l-3.18,3.93c-0.35,0.43-0.28,1.06,0.15,1.41c0.19,0.15,0.41,0.22,0.63,0.22c0.29,0,0.58-0.13,0.78-0.37  l3.18-3.93c0.35-0.43,0.28-1.06-0.15-1.41C35.43,13.69,34.8,13.76,34.45,14.19z"/><path d="M28.13,23.58c-0.43-0.35-1.06-0.28-1.41,0.15l-5.63,6.95c-0.35,0.43-0.28,1.06,0.15,1.41c0.19,0.15,0.41,0.22,0.63,0.22  c0.29,0,0.58-0.13,0.78-0.37l5.63-6.95C28.63,24.56,28.56,23.93,28.13,23.58z"/><path d="M34.36,34.54c0.22,0,0.44-0.07,0.63-0.22l10.82-8.77c0.43-0.35,0.5-0.98,0.15-1.41c-0.35-0.43-0.98-0.5-1.41-0.15  l-10.82,8.77c-0.43,0.35-0.5,0.98-0.15,1.41C33.78,34.42,34.07,34.54,34.36,34.54z"/><path d="M30.06,35.74l-1.99,1.61c-0.43,0.35-0.5,0.98-0.15,1.41c0.2,0.24,0.49,0.37,0.78,0.37c0.22,0,0.44-0.07,0.63-0.22l1.99-1.61  c0.43-0.35,0.5-0.98,0.15-1.41C31.12,35.46,30.49,35.39,30.06,35.74z"/><path d="M36.23,23.77c0.2,0.2,0.45,0.29,0.71,0.29s0.51-0.1,0.71-0.29l4.14-4.14c0.39-0.39,0.39-1.02,0-1.41s-1.02-0.39-1.41,0  l-4.14,4.14C35.84,22.75,35.84,23.38,36.23,23.77z"/><path d="M33.11,26.89c-0.39-0.39-1.02-0.39-1.41,0l-5.32,5.32c-0.39,0.39-0.39,1.02,0,1.41c0.2,0.2,0.45,0.29,0.71,0.29  s0.51-0.1,0.71-0.29l5.32-5.32C33.5,27.92,33.5,27.28,33.11,26.89z"/></svg>