<svg xmlns="http://www.w3.org/2000/svg" xmlns:xlink="http://www.w3.org/1999/xlink" version="1.1" x="0px" y="0px" viewBox="0 0 60 75" style="enable-background:new 0 0 60 60;" xml:space="preserve"><path d="M9.92,50.8V54c0,0.55,0.45,1,1,1h38.16c0.55,0,1-0.45,1-1v-3.2c0-6.83-5.24-12.46-11.91-13.09  c2.74-1.52,4.82-3.88,5.95-6.79l1.54-0.39c2.09-0.51,3.54-2.38,3.54-4.53v-4.8c0-1.87-1.11-3.52-2.78-4.26V6c0-0.55-0.45-1-1-1  s-1,0.45-1,1v10.36l-0.54-0.14C41.6,11.45,36.24,8.1,30,8.1c-6.24,0-11.6,3.36-13.89,8.13l-1.78,0.45  c-2.08,0.53-3.54,2.39-3.54,4.52V26c0,2.15,1.46,4.01,3.53,4.52l1.54,0.39c1.18,2.84,3.43,5.22,6.32,6.77  C15.35,38.15,9.92,43.85,9.92,50.8z M16.93,21.63c8.12-4.4,18.03-4.4,26.14,0v4.49c-8.12,4.4-18.03,4.4-26.14,0V21.63z M47.21,26  c0,1.23-0.83,2.29-2.03,2.59l-0.4,0.1c0.11-0.54,0.19-1.1,0.24-1.67c0.03-0.1,0.06-0.21,0.06-0.32v-0.36v-4.95v-0.36  c0-0.09-0.01-0.18-0.04-0.26c-0.04-0.78-0.15-1.54-0.34-2.28l0.48,0.12c1.19,0.3,2.03,1.37,2.03,2.58V26z M30,10.1  c6.36,0,11.67,3.95,12.83,9.16c-8.07-3.91-17.59-3.91-25.66,0C18.33,14.05,23.64,10.1,30,10.1z M14.82,28.59  c-1.19-0.29-2.02-1.36-2.02-2.58v-4.8c0-1.22,0.83-2.28,2.03-2.58l0.48-0.12c-0.19,0.74-0.29,1.5-0.34,2.28  c-0.02,0.08-0.04,0.17-0.04,0.26v0.36v4.95v0.36c0,0.09,0.01,0.18,0.04,0.26c0.03,0.58,0.1,1.15,0.21,1.71L14.82,28.59z   M17.57,29.84c-0.02-0.09-0.05-0.19-0.1-0.27c-0.12-0.35-0.22-0.72-0.31-1.08c4.04,1.95,8.43,2.93,12.83,2.93  c4.38,0,8.76-0.97,12.78-2.91c-1.24,5.55-6.27,9.31-12.76,9.14c-0.01,0-0.02,0-0.02,0C24.2,37.64,19.28,34.36,17.57,29.84z   M23.07,39.65h13.86c6.15,0,11.15,5,11.15,11.15V53H11.92v-2.2C11.92,44.65,16.92,39.65,23.07,39.65z"/></svg>