<svg xmlns="http://www.w3.org/2000/svg" xmlns:xlink="http://www.w3.org/1999/xlink" version="1.1" x="0px" y="0px" viewBox="0 0 60 75" style="enable-background:new 0 0 60 60;" xml:space="preserve"><path d="M49.99,18.63C51.97,22.08,53,25.96,53,30c0,12.68-10.32,23-23,23C17.32,53,7,42.68,7,30C7,17.31,17.32,7,30,7  c4.27,0,8.45,1.2,12.06,3.41c0.32-0.6,0.74-1.14,1.24-1.59C39.33,6.34,34.71,5,30,5C16.21,5,5,16.21,5,30c0,13.78,11.21,25,25,25  c13.78,0,25-11.22,25-25c0-4.47-1.16-8.76-3.37-12.56C51.16,17.93,50.6,18.33,49.99,18.63z"/><path d="M25.03,35.97c0.25,0,0.51-0.1,0.71-0.3l1.48-1.48c0.53,0.35,1.13,0.61,1.78,0.74v2.09c0,0.56,0.45,1,1,1c0.55,0,1-0.44,1-1  v-2.09c0.64-0.13,1.24-0.39,1.77-0.74l1.49,1.48c0.19,0.2,0.45,0.3,0.71,0.3c0.25,0,0.51-0.1,0.7-0.3c0.39-0.39,0.39-1.02,0-1.41  l-1.48-1.49c0.35-0.53,0.61-1.13,0.74-1.77h2.09c0.56,0,1-0.45,1-1c0-0.56-0.44-1-1-1h-2.09c-0.13-0.65-0.39-1.25-0.74-1.78  l1.48-1.48c0.39-0.39,0.39-1.03,0-1.42c-0.39-0.39-1.02-0.39-1.41,0l-1.48,1.48c-0.53-0.35-1.14-0.61-1.78-0.74v-2.09  c0-0.55-0.45-1-1-1c-0.55,0-1,0.45-1,1v2.09c-0.65,0.13-1.26,0.39-1.79,0.74l-1.47-1.48c-0.39-0.39-1.03-0.39-1.42,0  c-0.39,0.39-0.39,1.03,0,1.42l1.48,1.47c-0.35,0.53-0.61,1.14-0.74,1.79h-2.09c-0.55,0-1,0.44-1,1c0,0.55,0.45,1,1,1h2.09  c0.13,0.64,0.39,1.25,0.74,1.78l-1.48,1.48c-0.39,0.39-0.39,1.02,0,1.41C24.52,35.87,24.77,35.97,25.03,35.97z"/><path d="M46.39,30c0-9.04-7.35-16.39-16.39-16.39c-9.04,0-16.39,7.35-16.39,16.39c0,2.8,0.72,5.54,2.07,7.97  c0.44-0.52,0.97-0.96,1.57-1.3c-1.07-2.04-1.64-4.34-1.64-6.67c0-7.94,6.45-14.39,14.39-14.39c7.93,0,14.39,6.45,14.39,14.39  c0,7.93-6.46,14.39-14.39,14.39c-1.39,0-2.77-0.2-4.09-0.6c-0.22,0.65-0.55,1.26-0.97,1.79c1.62,0.54,3.34,0.81,5.06,0.81  C39.04,46.39,46.39,39.03,46.39,30z"/><circle cx="20.22" cy="41.88" r="4"/><circle cx="47.34" cy="13.25" r="4"/></svg>