<svg xmlns="http://www.w3.org/2000/svg" xmlns:xlink="http://www.w3.org/1999/xlink" version="1.1" x="0px" y="0px" viewBox="0 0 60 75" style="enable-background:new 0 0 60 60;" xml:space="preserve"><path d="M5.9,54.87l48,0.18c0.35,0,0.68-0.18,0.86-0.48c0.18-0.3,0.19-0.68,0.03-0.99c-4.89-9.16-13.52-7.92-16.22-7.27  c-2.49-4.34-5.31-5.05-9.6-5.17l0.04-10.13c1.35,0.85,2.7,1.2,4.04,1.21c2.56,0.01,5.07-1.2,7.4-2.32  c3.96-1.91,7.38-3.55,10.87-0.14c0.29,0.28,0.72,0.36,1.09,0.21c0.37-0.15,0.61-0.52,0.61-0.92l0.07-19.44  c0-0.27-0.11-0.53-0.3-0.72C48.3,4.5,43.71,6.71,39.65,8.66c-3.85,1.85-7.18,3.44-10.56,0.41l0-1.11c0.01-1.65-1.33-3.01-2.99-3.01  s-3.01,1.33-3.01,2.99l-0.13,33.77c-3.34,0.99-5.37,2.97-6.16,3.9c-8.72-0.8-11.82,7.85-11.85,7.94c-0.11,0.3-0.06,0.64,0.13,0.91  C5.27,54.71,5.58,54.87,5.9,54.87z M40.52,10.46c3.85-1.85,7.18-3.46,10.56-0.42l-0.06,16.94c-3.94-2.49-7.9-0.58-11.44,1.12  c-3.85,1.85-7.18,3.46-10.56,0.42l0.06-16.94C33.02,14.07,36.98,12.17,40.52,10.46z M25.09,7.94c0-0.55,0.45-1,1-1  c0.55,0,1,0.45,1,1l-0.06,15.27l-0.02,5.73l0,0l-0.05,12.17c-0.7,0.01-1.37,0.06-2,0.15L25.09,7.94z M17.11,47.66  c0.37,0.05,0.74-0.11,0.95-0.42c0.12-0.17,3-4.14,9.11-4.12c5.56,0.02,7.71,0.42,10.01,4.84c0.23,0.44,0.76,0.64,1.22,0.48  c0.37-0.13,8.6-2.93,13.72,4.61L7.45,52.88C8.59,50.75,11.47,46.88,17.11,47.66z"/><path d="M7.07,22.31c0.31,0.23,0.72,0.26,1.05,0.08l2.17-1.13l2.16,1.15c0.15,0.08,0.31,0.12,0.46,0.12c0.21,0,0.41-0.06,0.59-0.19  c0.31-0.22,0.46-0.6,0.4-0.98l-0.4-2.42l1.76-1.7c0.27-0.27,0.37-0.66,0.26-1.02c-0.12-0.36-0.43-0.63-0.81-0.68l-2.42-0.36  l-1.08-2.2c-0.33-0.68-1.45-0.69-1.79-0.01l-1.09,2.19L5.91,15.5c-0.38,0.05-0.69,0.32-0.81,0.68c-0.12,0.36-0.02,0.76,0.25,1.03  l1.75,1.72l-0.42,2.41C6.61,21.71,6.76,22.09,7.07,22.31z M9.14,17.06c0.33-0.05,0.61-0.25,0.75-0.54l0.42-0.85l0.42,0.85  c0.14,0.3,0.42,0.5,0.75,0.55l0.94,0.14l-0.68,0.66c-0.24,0.23-0.34,0.56-0.29,0.88l0.16,0.94l-0.84-0.45  c-0.15-0.08-0.3-0.12-0.46-0.12s-0.32,0.04-0.47,0.11l-0.84,0.44l0.16-0.94c0.06-0.32-0.05-0.66-0.28-0.89L8.2,17.19L9.14,17.06z"/><path d="M17.26,29.65c-0.12-0.36-0.43-0.63-0.81-0.68l-1.57-0.23l-0.7-1.42c-0.33-0.68-1.45-0.69-1.79-0.01l-0.71,1.42l-1.57,0.22  c-0.38,0.05-0.69,0.32-0.81,0.68c-0.12,0.36-0.02,0.76,0.25,1.03l1.13,1.11l-0.27,1.56c-0.07,0.37,0.09,0.75,0.39,0.98  c0.31,0.23,0.72,0.26,1.05,0.08l1.41-0.73l1.4,0.74c0.15,0.08,0.31,0.12,0.46,0.12c0.21,0,0.41-0.06,0.59-0.19  c0.31-0.22,0.46-0.6,0.4-0.98l-0.26-1.56l1.14-1.1C17.28,30.4,17.38,30.01,17.26,29.65z M14.1,30.7c-0.24,0.23-0.34,0.56-0.29,0.88  l0.01,0.08l-0.08-0.04c-0.15-0.08-0.3-0.12-0.46-0.12c-0.16,0-0.32,0.04-0.47,0.11l-0.08,0.04l0.01-0.08  c0.06-0.32-0.05-0.66-0.28-0.89l-0.06-0.06l0.08-0.01c0.33-0.05,0.61-0.25,0.75-0.54L13.29,30l0.04,0.08  c0.14,0.3,0.42,0.5,0.75,0.55l0.08,0.01L14.1,30.7z"/><path d="M48.6,35.75c-0.12-0.36-0.43-0.63-0.81-0.68l-1.57-0.23l-0.7-1.42c-0.33-0.68-1.45-0.69-1.79-0.01l-0.71,1.42l-1.57,0.22  c-0.38,0.05-0.69,0.32-0.81,0.68c-0.12,0.36-0.02,0.76,0.25,1.03l1.13,1.11l-0.27,1.56c-0.07,0.38,0.09,0.75,0.39,0.98  c0.17,0.13,0.38,0.19,0.59,0.19c0.16,0,0.32-0.04,0.47-0.11l1.41-0.73l1.4,0.74c0.34,0.18,0.74,0.15,1.05-0.07  c0.31-0.22,0.46-0.6,0.4-0.98l-0.26-1.56l1.14-1.1C48.61,36.51,48.71,36.11,48.6,35.75z M45.43,36.8c-0.24,0.23-0.34,0.56-0.29,0.88  l0.01,0.08l-0.07-0.04c-0.29-0.15-0.64-0.16-0.93,0l-0.08,0.04l0.01-0.08c0.06-0.32-0.05-0.66-0.28-0.89l-0.06-0.06l0.08-0.01  c0.33-0.05,0.61-0.25,0.76-0.54l0.04-0.08l0.04,0.08c0.14,0.3,0.42,0.5,0.75,0.55l0.08,0.01L45.43,36.8z"/></svg>