<svg xmlns="http://www.w3.org/2000/svg" xmlns:xlink="http://www.w3.org/1999/xlink" version="1.1" x="0px" y="0px" viewBox="0 0 60 75" style="enable-background:new 0 0 60 60;" xml:space="preserve"><path d="M30,47c9.37,0,17-7.63,17-17s-7.63-17-17-17c-2.52,0-5.01,0.57-7.28,1.64c-0.77-0.74-1.81-1.2-2.96-1.2  c-2.35,0-4.27,1.91-4.27,4.27c0,0.88,0.27,1.69,0.72,2.37C14.12,22.98,13,26.39,13,30C13,39.37,20.63,47,30,47z M45,30  c0,8.27-6.73,15-15,15s-15-6.73-15-15c0-3.11,0.94-6.05,2.71-8.57c0.61,0.34,1.31,0.55,2.06,0.55c2.35,0,4.27-1.91,4.27-4.27  c0-0.48-0.1-0.93-0.24-1.36C25.73,15.46,27.86,15,30,15C38.27,15,45,21.73,45,30z M19.77,15.44c1.25,0,2.27,1.02,2.27,2.27  s-1.02,2.27-2.27,2.27s-2.27-1.02-2.27-2.27S18.52,15.44,19.77,15.44z"/><path d="M30,37.13c3.93,0,7.13-3.2,7.13-7.13s-3.2-7.13-7.13-7.13s-7.13,3.2-7.13,7.13S26.07,37.13,30,37.13z M30,24.88  c2.83,0,5.13,2.3,5.13,5.13s-2.3,5.13-5.13,5.13s-5.13-2.3-5.13-5.13S27.17,24.88,30,24.88z"/><path d="M9.73,48.09c0,2.35,1.91,4.27,4.27,4.27c1.1,0,2.09-0.43,2.85-1.12C20.8,53.69,25.32,55,30,55c13.79,0,25-11.21,25-25  S43.79,5,30,5S5,16.21,5,30c0,5.7,1.97,11.21,5.52,15.64C10.03,46.33,9.73,47.18,9.73,48.09z M14,50.36c-1.25,0-2.27-1.02-2.27-2.27  s1.02-2.27,2.27-2.27s2.27,1.02,2.27,2.27S15.25,50.36,14,50.36z M30,7c12.68,0,23,10.32,23,23S42.68,53,30,53  c-4.27,0-8.41-1.18-12.02-3.4c0.18-0.47,0.29-0.97,0.29-1.5c0-2.35-1.91-4.27-4.27-4.27c-0.71,0-1.37,0.19-1.96,0.5  C8.79,40.27,7,35.22,7,30C7,17.32,17.32,7,30,7z"/></svg>