<svg xmlns="http://www.w3.org/2000/svg" xmlns:xlink="http://www.w3.org/1999/xlink" version="1.1" x="0px" y="0px" viewBox="0 0 60 75" style="enable-background:new 0 0 60 60;" xml:space="preserve"><path d="M30,13.61c-9.04,0-16.39,7.35-16.39,16.39c0,3.51,1.15,6.94,3.23,9.75c-0.39,0.62-0.63,1.34-0.63,2.13c0,2.21,1.79,4,4,4  c1.06,0,2.01-0.42,2.73-1.09c2.19,1.04,4.61,1.6,7.05,1.6c9.04,0,16.39-7.35,16.39-16.39C46.39,20.96,39.04,13.61,30,13.61z   M20.22,43.88c-1.1,0-2-0.9-2-2s0.9-2,2-2s2,0.9,2,2S21.32,43.88,20.22,43.88z M30,44.39c-2.07,0-4.11-0.47-5.98-1.33  c0.12-0.38,0.2-0.77,0.2-1.18c0-2.21-1.79-4-4-4c-0.69,0-1.33,0.19-1.9,0.5c-1.75-2.43-2.71-5.37-2.71-8.38  c0-7.93,6.46-14.39,14.39-14.39S44.39,22.07,44.39,30S37.93,44.39,30,44.39z"/><path d="M37.03,29h-2.09c-0.13-0.65-0.39-1.25-0.74-1.78l1.48-1.48c0.39-0.39,0.39-1.02,0-1.41s-1.02-0.39-1.41,0l-1.48,1.48  c-0.53-0.35-1.13-0.61-1.78-0.74v-2.09c0-0.55-0.45-1-1-1s-1,0.45-1,1v2.09c-0.65,0.13-1.25,0.39-1.78,0.74l-1.48-1.48  c-0.39-0.39-1.02-0.39-1.41,0s-0.39,1.02,0,1.41l1.48,1.48c-0.35,0.53-0.61,1.13-0.74,1.78h-2.09c-0.55,0-1,0.45-1,1s0.45,1,1,1  h2.09c0.13,0.65,0.39,1.25,0.74,1.78l-1.48,1.48c-0.39,0.39-0.39,1.02,0,1.41c0.2,0.2,0.45,0.29,0.71,0.29s0.51-0.1,0.71-0.29  l1.48-1.48c0.53,0.35,1.13,0.61,1.78,0.74v2.09c0,0.55,0.45,1,1,1s1-0.45,1-1v-2.09c0.65-0.13,1.25-0.39,1.78-0.74l1.48,1.48  c0.2,0.2,0.45,0.29,0.71,0.29s0.51-0.1,0.71-0.29c0.39-0.39,0.39-1.02,0-1.41l-1.48-1.48c0.35-0.53,0.61-1.13,0.74-1.78h2.09  c0.55,0,1-0.45,1-1S37.58,29,37.03,29z M30,33.03c-1.67,0-3.03-1.36-3.03-3.03s1.36-3.03,3.03-3.03s3.03,1.36,3.03,3.03  S31.67,33.03,30,33.03z"/><path d="M51.34,13.26c0-2.21-1.79-4-4-4c-0.88,0-1.68,0.29-2.34,0.77C40.69,6.79,35.41,5,30,5C16.21,5,5,16.21,5,30s11.21,25,25,25  s25-11.21,25-25c0-5.17-1.57-10.09-4.51-14.3C51.02,15.02,51.34,14.18,51.34,13.26z M49.34,13.26c0,1.1-0.9,2-2,2s-2-0.9-2-2  s0.9-2,2-2S49.34,12.15,49.34,13.26z M30,53C17.32,53,7,42.68,7,30S17.32,7,30,7c4.95,0,9.78,1.63,13.73,4.57  c-0.24,0.51-0.38,1.08-0.38,1.68c0,2.21,1.79,4,4,4c0.56,0,1.08-0.11,1.57-0.32C51.58,20.79,53,25.28,53,30C53,42.68,42.68,53,30,53  z"/></svg>