<svg xmlns="http://www.w3.org/2000/svg" xmlns:xlink="http://www.w3.org/1999/xlink" version="1.1" x="0px" y="0px" viewBox="0 0 60 75" style="enable-background:new 0 0 60 60;" xml:space="preserve"><path d="M9.66,44.51c2.15,3,4.94,5.51,8.17,7.32c0.04,0.03,0.09,0.05,0.13,0.08C21.53,53.87,25.64,55,30,55  c7.29,0,13.86-3.14,18.44-8.13c0.03-0.04,0.07-0.07,0.1-0.11c1.39-1.54,2.59-3.25,3.57-5.1c0.02-0.03,0.03-0.05,0.04-0.08  C53.97,38.11,55,34.18,55,30c0-3.17-0.6-6.2-1.68-8.99c-0.01-0.02-0.02-0.04-0.02-0.06c-1.41-3.62-3.64-6.83-6.46-9.41  c-0.02-0.02-0.03-0.04-0.05-0.05c-0.01-0.01-0.02-0.01-0.03-0.02C42.32,7.45,36.44,5,30,5c-8.04,0-15.2,3.82-19.77,9.73  c-0.02,0.02-0.04,0.05-0.06,0.08c-1.48,1.93-2.68,4.07-3.56,6.38c-0.01,0.02-0.02,0.05-0.03,0.07C5.56,23.98,5,26.92,5,30  c0,5.36,1.7,10.33,4.58,14.4C9.61,44.44,9.63,44.48,9.66,44.51z M12.71,45.14c5.15,0.65,10.26,1.48,12.25,2.09  c-1.22,0.74-3.92,1.85-6.41,2.7C16.35,48.66,14.38,47.04,12.71,45.14z M21.03,51.18c3.01-1.11,5.93-2.47,6.37-3.66  c0.15-0.4,0.11-0.81-0.1-1.16c-0.25-0.41-1-1.65-16.33-3.44c-1.48-2.18-2.6-4.62-3.27-7.24c4.26,0.29,7.1,1.96,9.85,3.59  c2.49,1.48,4.84,2.89,7.88,2.89c4.84,0,16.21,3.26,20.4,4.51C41.71,50.58,36.13,53,30,53C26.82,53,23.79,52.35,21.03,51.18z   M8.23,22.61c5.96,0.09,8.96,1.34,11.85,2.55c2.73,1.14,5.32,2.22,9.92,2.22c8.22,0,16.72-7.13,19.45-9.63  c0.65,1.03,1.23,2.11,1.71,3.24c-2.63,2.15-14.1,11.14-21.28,11.14c-4.22,0-8.26-1.6-12.17-3.14c-3.53-1.4-6.88-2.71-10.36-2.96  C7.56,24.85,7.85,23.71,8.23,22.61z M16.97,30.84c4.08,1.61,8.3,3.28,12.9,3.28c7.5,0,18.49-8.33,22.02-11.16  C52.61,25.18,53,27.55,53,30c0,0.73-0.04,1.45-0.1,2.16c-3.87,0.19-12.85,0.97-13.89,4.1c-0.21,0.61-0.12,1.24,0.24,1.81  c1.37,2.17,7.38,3.38,10.42,3.85c-0.67,1.1-1.43,2.14-2.27,3.1c-3.08-0.94-16.31-4.88-21.95-4.88c-2.48,0-4.51-1.21-6.85-2.6  c-2.93-1.74-6.25-3.69-11.29-3.89C7.1,32.46,7,31.24,7,30c0-0.67,0.04-1.33,0.09-1.99C10.31,28.22,13.56,29.49,16.97,30.84z   M50.68,40.06c-4.26-0.61-9.02-1.9-9.74-3.05c-0.05-0.07-0.04-0.09-0.03-0.11c0.43-1.28,6.27-2.4,11.71-2.72  C52.23,36.25,51.57,38.23,50.68,40.06z M48.29,16.08c-2.31,2.13-10.66,9.29-18.29,9.29c-4.2,0-6.5-0.96-9.15-2.07  c-2.81-1.17-5.98-2.49-11.84-2.68c0.66-1.48,1.47-2.87,2.42-4.16c3.28,0.09,5.72,1.07,8.28,2.11c3.08,1.25,6.26,2.55,11.17,2.55  c7.75,0,13.42-5.31,15.35-7.41C46.97,14.46,47.66,15.25,48.29,16.08z M30,7c5.61,0,10.75,2.02,14.75,5.37  c-1.76,1.88-6.99,6.76-13.87,6.76c-4.52,0-7.52-1.22-10.42-2.4c-2.25-0.92-4.57-1.85-7.5-2.16C17.17,9.92,23.25,7,30,7z"/></svg>