<svg xmlns="http://www.w3.org/2000/svg" xmlns:xlink="http://www.w3.org/1999/xlink" version="1.1" x="0px" y="0px" viewBox="0 0 60 75" style="enable-background:new 0 0 60 60;" xml:space="preserve"><path d="M54.14,45.73l-3.53-0.51l-1.49-3.02l-1.26-16.18l2.02,1.06c0.15,0.08,0.31,0.12,0.47,0.12c0.21,0,0.41-0.06,0.59-0.19  c0.31-0.22,0.46-0.6,0.4-0.98l-0.6-3.51l2.55-2.49c0.27-0.27,0.37-0.66,0.25-1.03c-0.12-0.36-0.43-0.63-0.81-0.68l-3.53-0.51  l-1.58-3.2c-0.17-0.34-0.52-0.56-0.9-0.56c-0.38,0-0.73,0.22-0.9,0.56l-1.39,2.82l-10.21-4.27l1.85-1.8  c0.27-0.27,0.37-0.66,0.25-1.03c-0.12-0.36-0.43-0.63-0.81-0.68l-3.53-0.51l-1.58-3.2c-0.17-0.34-0.52-0.56-0.9-0.56  c-0.38,0-0.73,0.22-0.9,0.56l-1.58,3.2l-3.53,0.51c-0.38,0.05-0.69,0.32-0.81,0.68c-0.12,0.36-0.02,0.76,0.25,1.02L25,13.36  l-10.94,7.32l-1.31-2.64c-0.34-0.68-1.46-0.68-1.79,0l-1.58,3.2l-3.53,0.51c-0.38,0.05-0.69,0.32-0.81,0.68  c-0.12,0.36-0.02,0.76,0.25,1.03l2.55,2.49l-0.6,3.51c-0.06,0.38,0.09,0.75,0.4,0.98c0.31,0.23,0.72,0.25,1.05,0.08l2.77-1.46  l6.76,11.65l-2.58,0.38c-0.38,0.05-0.69,0.32-0.81,0.68c-0.12,0.36-0.02,0.76,0.25,1.03l2.55,2.49l-0.6,3.51  c-0.06,0.38,0.09,0.75,0.4,0.98c0.31,0.22,0.72,0.25,1.05,0.08l3.16-1.66l3.16,1.66c0.15,0.08,0.31,0.12,0.47,0.12  c0.21,0,0.41-0.06,0.59-0.19c0.31-0.22,0.46-0.6,0.4-0.98l-0.44-2.56l18.24,4.13l-0.53,3.1c-0.06,0.38,0.09,0.75,0.4,0.98  c0.17,0.13,0.38,0.19,0.59,0.19c0.16,0,0.32-0.04,0.47-0.12l3.16-1.66l3.16,1.66c0.34,0.18,0.75,0.15,1.05-0.08  c0.31-0.22,0.46-0.6,0.4-0.98l-0.6-3.51l2.55-2.49c0.27-0.27,0.37-0.66,0.25-1.02C54.83,46.05,54.52,45.79,54.14,45.73z   M41.59,47.44l0.39,0.38L26.6,44.34l1.61-1.57c0.27-0.27,0.37-0.66,0.25-1.02c-0.12-0.36-0.43-0.63-0.81-0.68l-3.53-0.51l-1.58-3.2  c-0.34-0.68-1.46-0.68-1.79,0l-0.98,2l-5.31-9.14l0.55,0.29c0.15,0.08,0.31,0.12,0.47,0.12c0.21,0,0.41-0.06,0.59-0.19  c0.31-0.22,0.46-0.6,0.4-0.98l-0.6-3.51l2.55-2.49c0.27-0.27,0.37-0.66,0.25-1.03c-0.12-0.36-0.43-0.63-0.81-0.68l-1.47-0.21  l8.82-5.9l-0.3,1.74c-0.06,0.38,0.09,0.75,0.4,0.98c0.31,0.23,0.72,0.25,1.05,0.08l3.16-1.66l3.16,1.66  c0.15,0.08,0.31,0.12,0.47,0.12c0.21,0,0.41-0.06,0.59-0.19c0.31-0.22,0.46-0.6,0.4-0.98l-0.38-2.24l7.47,3.12l-0.48,0.07  c-0.38,0.05-0.69,0.32-0.81,0.68c-0.12,0.36-0.02,0.76,0.25,1.02l2.55,2.49l-0.6,3.51c-0.06,0.38,0.09,0.75,0.4,0.98  c0.31,0.23,0.72,0.25,1.05,0.08l2.28-1.2l1.28,16.39l-1.46,2.95l-3.53,0.51c-0.38,0.05-0.69,0.32-0.81,0.68  C41.21,46.78,41.31,47.17,41.59,47.44z M46.73,17.31l0.91,1.85c0.15,0.29,0.43,0.5,0.75,0.55l2.04,0.3l-1.48,1.44  c-0.24,0.23-0.34,0.56-0.29,0.88l0.35,2.03l-1.83-0.96c-0.03-0.02-0.07-0.03-0.11-0.04c-0.03-0.01-0.05-0.02-0.08-0.03  c-0.09-0.03-0.19-0.05-0.28-0.05c-0.02,0-0.03,0.01-0.05,0.01c-0.01,0-0.02,0-0.03,0c-0.01,0-0.03,0.01-0.04,0.01  c-0.11,0.01-0.22,0.04-0.33,0.09c-0.01,0-0.01,0-0.02,0.01c0,0,0,0,0,0l-1.83,0.96l0.35-2.03c0.06-0.32-0.05-0.66-0.29-0.88  l-1.48-1.44l2.04-0.3c0.03,0,0.05-0.02,0.08-0.02c0.03-0.01,0.07-0.02,0.1-0.03c0.06-0.02,0.11-0.05,0.16-0.07  c0.03-0.01,0.05-0.03,0.08-0.04c0.07-0.05,0.14-0.11,0.2-0.17c0.01-0.01,0.01-0.02,0.02-0.03c0.04-0.06,0.09-0.11,0.12-0.18  L46.73,17.31z M27.84,11.05c0.33-0.05,0.61-0.25,0.75-0.55l0.91-1.85l0.91,1.85c0.15,0.29,0.43,0.5,0.75,0.55l2.04,0.3l-1.48,1.44  c0,0,0,0,0,0c0,0,0,0,0,0c-0.09,0.09-0.15,0.19-0.2,0.29c-0.01,0.01-0.02,0.02-0.02,0.03c0,0.01,0,0.02-0.01,0.03  c-0.04,0.11-0.06,0.22-0.07,0.34c0,0.02,0,0.05,0,0.07c0,0.04,0,0.08,0.01,0.12l0.35,2.03l-1.83-0.96  c-0.15-0.08-0.31-0.12-0.47-0.12s-0.32,0.04-0.47,0.12l-1.83,0.96l0.35-2.03c0.02-0.11,0.01-0.21,0-0.32c0-0.02-0.01-0.05-0.01-0.07  c-0.03-0.11-0.07-0.22-0.13-0.32c0,0,0-0.01,0-0.01c-0.01-0.01-0.02-0.01-0.02-0.02c-0.03-0.05-0.07-0.1-0.11-0.14l-1.48-1.44  L27.84,11.05z M9.63,24.87l-1.48-1.44l2.04-0.3c0.33-0.05,0.61-0.25,0.75-0.55l0.91-1.85l0.91,1.85c0.01,0.03,0.04,0.05,0.05,0.08  c0.01,0.01,0.01,0.02,0.01,0.03c0.01,0.02,0.02,0.03,0.04,0.04c0.03,0.04,0.06,0.07,0.09,0.1c0.03,0.03,0.06,0.06,0.09,0.08  c0.03,0.02,0.06,0.05,0.1,0.07c0.04,0.02,0.07,0.04,0.11,0.06c0.03,0.02,0.07,0.03,0.11,0.04c0.04,0.01,0.08,0.03,0.12,0.03  c0.02,0,0.03,0.01,0.04,0.01l2.04,0.3l-1.48,1.44c-0.24,0.23-0.34,0.56-0.29,0.88l0.35,2.03l-1.83-0.96  c-0.06-0.03-0.12-0.05-0.18-0.07c-0.01,0-0.02-0.01-0.04-0.01c-0.08-0.02-0.16-0.03-0.25-0.03c-0.03,0-0.06,0.01-0.09,0.01  c-0.03,0-0.05,0-0.08,0.01c-0.1,0.02-0.21,0.04-0.3,0.1l-1.83,0.96l0.35-2.03C9.97,25.43,9.86,25.1,9.63,24.87z M22.12,46.15  c-0.15-0.08-0.31-0.12-0.47-0.12s-0.32,0.04-0.47,0.12l-1.83,0.96l0.35-2.03c0.06-0.32-0.05-0.66-0.29-0.88l-1.48-1.44l2.04-0.3  c0.02,0,0.04-0.01,0.06-0.02c0.04-0.01,0.07-0.02,0.11-0.03c0.05-0.02,0.09-0.03,0.13-0.06c0.02-0.01,0.04-0.01,0.06-0.02  c0.01-0.01,0.01-0.02,0.02-0.02c0.1-0.06,0.18-0.14,0.26-0.23c0.01-0.02,0.02-0.04,0.03-0.05c0.03-0.04,0.06-0.08,0.08-0.12  l0.91-1.85l0.91,1.85c0.15,0.29,0.43,0.5,0.75,0.55l2.04,0.3l-1.48,1.44c-0.03,0.03-0.06,0.07-0.09,0.11  c-0.01,0.02-0.03,0.03-0.04,0.05c-0.07,0.1-0.11,0.2-0.14,0.32c0,0.01-0.01,0.02-0.01,0.03c0,0.01,0,0.03,0,0.04  c-0.02,0.11-0.03,0.23-0.01,0.35l0.35,2.03L22.12,46.15z M50.37,48.86c-0.24,0.23-0.34,0.56-0.29,0.88l0.35,2.03l-1.83-0.96  c-0.15-0.08-0.31-0.12-0.47-0.12s-0.32,0.04-0.47,0.12l-1.83,0.96l0.35-2.03c0.02-0.1,0.01-0.21,0-0.31c0-0.02-0.01-0.05-0.01-0.07  c-0.02-0.11-0.06-0.22-0.12-0.32c0,0-0.01-0.01-0.01-0.01c-0.04-0.06-0.09-0.12-0.14-0.17l-1.48-1.44l2.04-0.3  c0.33-0.05,0.61-0.25,0.75-0.55l0.91-1.85l0.91,1.85c0.15,0.29,0.43,0.5,0.75,0.55l2.04,0.3L50.37,48.86z"/></svg>