<svg xmlns="http://www.w3.org/2000/svg" xmlns:xlink="http://www.w3.org/1999/xlink" version="1.1" x="0px" y="0px" viewBox="0 0 60 75" style="enable-background:new 0 0 60 60;" xml:space="preserve"><path d="M30,5C16.22,5,5,16.21,5,30c0,5.01,1.51,9.87,4.29,13.98c0.43-0.51,0.95-0.94,1.54-1.28C8.34,38.95,7,34.54,7,30  C7,17.31,17.32,7,30,7c12.69,0,23,10.31,23,23c0,12.68-10.31,23-23,23c-3.59,0-7.09-0.83-10.25-2.42c-0.26,0.62-0.63,1.2-1.09,1.69  C22.16,54.06,26.03,55,30,55c13.79,0,25-11.22,25-25C55,16.21,43.79,5,30,5z"/><path d="M13,30c0,9.37,7.63,17,17,17c9.38,0,17-7.63,17-17c0-9.38-7.62-17-17-17c-1.8,0-3.59,0.29-5.29,0.85  c0.42,0.53,0.75,1.14,0.97,1.79C27.08,15.22,28.54,15,30,15c8.28,0,15,6.73,15,15c0,8.27-6.72,15-15,15c-8.27,0-15-6.73-15-15  c0-2.43,0.57-4.76,1.67-6.86c-0.6-0.34-1.13-0.77-1.58-1.29C13.72,24.33,13,27.1,13,30z"/><path d="M30,37.12c3.93,0,7.13-3.19,7.13-7.12s-3.2-7.13-7.13-7.13c-3.92,0-7.12,3.2-7.12,7.13S26.08,37.12,30,37.12z"/><circle cx="14.01" cy="48.09" r="4.27"/><path d="M19.77,13.44c-2.35,0-4.26,1.92-4.26,4.27c0,2.35,1.91,4.26,4.26,4.26c2.35,0,4.27-1.91,4.27-4.26  C24.04,15.36,22.12,13.44,19.77,13.44z"/></svg>