<svg xmlns="http://www.w3.org/2000/svg" xmlns:xlink="http://www.w3.org/1999/xlink" version="1.1" x="0px" y="0px" viewBox="0 0 60 75" style="enable-background:new 0 0 60 60;" xml:space="preserve"><path d="M17.51,26.02c0.2,0.2,0.45,0.29,0.71,0.29s0.51-0.1,0.71-0.29l2.84-2.84l1.96,1.96l-7.46,7.46c-0.39,0.39-0.39,1.02,0,1.41  l2.32,2.32l-2.01,2.01c-2.22-1.25-5.09-0.96-6.98,0.93c-0.39,0.39-0.39,1.02,0,1.41l4.15,4.15l-2.24,2.24  c-0.39,0.39-0.39,1.02,0,1.41c0.2,0.2,0.45,0.29,0.71,0.29s0.51-0.1,0.71-0.29l2.24-2.24l4.15,4.15c0.19,0.19,0.44,0.29,0.71,0.29  s0.52-0.11,0.71-0.29c1.89-1.89,2.18-4.76,0.93-6.98l2.01-2.01l2.32,2.32c0.19,0.19,0.44,0.29,0.71,0.29s0.52-0.11,0.71-0.29  l7.46-7.46l1.96,1.96l-2.84,2.84c-0.39,0.39-0.39,1.02,0,1.41L46.19,54.7c0.2,0.2,0.45,0.29,0.71,0.29s0.51-0.1,0.71-0.29l7.1-7.1  c0.19-0.19,0.29-0.44,0.29-0.71s-0.11-0.52-0.29-0.71L42.49,33.97c-0.38-0.38-1.04-0.38-1.41,0l-2.85,2.85l-1.96-1.96l7.46-7.46  c0.39-0.39,0.39-1.02,0-1.41l-9.71-9.72c-0.38-0.38-1.04-0.38-1.41,0l-7.46,7.46l-1.96-1.96l2.84-2.85c0.39-0.39,0.39-1.02,0-1.41  L13.81,5.29c-0.38-0.38-1.04-0.38-1.41,0l-7.1,7.1C5.11,12.58,5,12.83,5,13.1s0.11,0.52,0.29,0.71L17.51,26.02z M41.79,36.09  l10.8,10.8l-5.69,5.69l-10.8-10.8L41.79,36.09z M19.93,48.18l-4.06-4.06c0,0,0,0,0,0s0,0,0,0l-4.06-4.06  c1.46-0.84,3.37-0.63,4.61,0.61l2.89,2.89C20.57,44.81,20.77,46.71,19.93,48.18z M20.42,41.83l-2.25-2.25L20,37.74l2.25,2.25  L20.42,41.83z M33.31,18.39l8.3,8.3L26.69,41.6l-2.31-2.31c0,0,0,0,0,0l-3.67-3.67c0,0,0,0,0,0l-2.31-2.31L33.31,18.39z M13.1,7.41  l10.8,10.8l-5.69,5.69L7.41,13.1L13.1,7.41z"/></svg>