<svg xmlns="http://www.w3.org/2000/svg" xmlns:xlink="http://www.w3.org/1999/xlink" version="1.1" x="0px" y="0px" viewBox="0 0 60 75" style="enable-background:new 0 0 60 60;" xml:space="preserve"><path d="M30,55c7.56,0,14.34-3.38,18.93-8.7c0.05-0.04,0.08-0.09,0.12-0.14C52.76,41.8,55,36.16,55,30c0-4.77-1.34-9.22-3.67-13.02  c-0.02-0.03-0.04-0.07-0.06-0.1C46.86,9.76,38.98,5,30,5c-4.33,0-8.41,1.11-11.96,3.05c-0.03,0.02-0.06,0.03-0.09,0.05  c-6.41,3.54-11.11,9.82-12.51,17.25c0,0.03-0.01,0.05-0.01,0.07C5.15,26.91,5,28.44,5,30C5,43.79,16.21,55,30,55z M47.8,44.55  c-3.2-0.06-6.4-0.87-9.22-2.38c-1.01-0.54-1.69-1.02-2.2-1.56c-1.78-1.87-1.8-5.16-0.03-7.04c0.92-0.98,2.19-1.59,3.54-2.23  c0.37-0.17,0.73-0.35,1.09-0.53c2.51-1.27,3.97-2.78,4.45-4.61c0.21-0.81,0.21-1.6,0.21-2.37c0-0.68-0.01-1.32,0.15-1.88  c0.22-0.79,0.79-1.48,1.52-1.84c0.34-0.17,0.75-0.3,1.19-0.43c0.56-0.17,1.16-0.37,1.71-0.68C51.98,22.28,53,26.02,53,30  C53,35.52,51.05,40.59,47.8,44.55z M49.16,17.29c-0.34,0.19-0.79,0.34-1.26,0.48c-0.49,0.15-1,0.31-1.48,0.55  c-1.24,0.61-2.2,1.77-2.57,3.1c-0.23,0.83-0.23,1.64-0.22,2.42c0,0.66,0.01,1.29-0.14,1.85c-0.33,1.25-1.45,2.34-3.42,3.34  c-0.34,0.17-0.7,0.34-1.05,0.51c-1.46,0.69-2.96,1.41-4.14,2.67c-2.5,2.66-2.48,7.15,0.05,9.79c0.86,0.9,1.9,1.51,2.71,1.94  c2.6,1.38,5.47,2.23,8.42,2.51C41.9,50.5,36.24,53,30,53C17.32,53,7,42.68,7,30c0-1.02,0.07-2.02,0.2-3  c1.28,0.51,2.67,0.77,4.07,0.77c1.11,0,2.23-0.16,3.32-0.48c2.89-0.86,5.5-2.81,7.35-5.5c1.03-1.51,1.51-2.88,1.45-4.19  c-0.08-1.73-1.02-3.07-1.93-4.37c-0.34-0.48-0.65-0.93-0.92-1.39c-0.42-0.72-0.73-1.52-0.91-2.35C22.74,7.9,26.27,7,30,7  C37.99,7,45.03,11.09,49.16,17.29z M17.83,10.5c0.24,0.82,0.56,1.61,0.98,2.34c0.31,0.54,0.67,1.04,1.01,1.54  c0.78,1.11,1.52,2.17,1.57,3.31c0.04,0.86-0.32,1.83-1.1,2.97c-1.59,2.31-3.81,3.99-6.26,4.72c-2.16,0.64-4.53,0.48-6.47-0.4  C8.92,18.89,12.7,13.71,17.83,10.5z"/><path d="M22.39,33.22c-1.11-0.89-2.41-1.57-3.75-1.96c0,0,0,0,0,0c-1.72-0.5-2.7-0.03-3.23,0.45c-0.44,0.41-0.73,0.99-0.86,1.72  c-0.27,1.55,0.21,3.08,0.6,4.1c0.82,2.16,1.97,4.01,3.4,5.48c1.62,1.67,3.58,2.81,5.67,3.31c0.44,0.1,0.85,0.16,1.22,0.16  c0.68,0,1.25-0.18,1.73-0.53c0.74-0.55,1.14-1.45,1.19-2.69c0.07-1.45-0.27-2.92-0.97-4.25c-0.48-0.91-1.1-1.53-1.71-2.12  c-0.23-0.22-0.46-0.45-0.68-0.7c-0.3-0.33-0.57-0.68-0.83-1.02C23.66,34.5,23.14,33.82,22.39,33.22z M24.28,38.31  c0.54,0.53,1.01,0.99,1.34,1.63c0.53,1.01,0.79,2.13,0.74,3.23c-0.03,0.59-0.16,1.01-0.39,1.17c-0.23,0.17-0.67,0.18-1.29,0.03  c-1.71-0.41-3.34-1.36-4.7-2.76c-1.24-1.27-2.24-2.89-2.96-4.8c-0.49-1.28-0.64-2.22-0.5-3.04c0.05-0.29,0.14-0.5,0.24-0.6  c0.1-0.09,0.27-0.13,0.49-0.13c0.23,0,0.51,0.05,0.82,0.14c1.09,0.32,2.14,0.87,3.05,1.6c0.56,0.45,1,1.01,1.45,1.61  c0.3,0.39,0.6,0.77,0.94,1.15C23.77,37.81,24.03,38.06,24.28,38.31z"/></svg>