<svg xmlns="http://www.w3.org/2000/svg" xmlns:xlink="http://www.w3.org/1999/xlink" version="1.1" x="0px" y="0px" viewBox="0 0 60 75" style="enable-background:new 0 0 60 60;" xml:space="preserve"><path d="M46.26,12.32C46.26,12.32,46.26,12.32,46.26,12.32C46.26,12.32,46.26,12.32,46.26,12.32L32.2,26.38  c-0.64-0.39-1.39-0.63-2.2-0.63c-2.34,0-4.25,1.91-4.25,4.25s1.91,4.25,4.25,4.25s4.25-1.91,4.25-4.25c0-0.81-0.24-1.56-0.63-2.2  l3.53-3.53c1.31,1.62,2.02,3.62,2.02,5.73c0,0.82-0.11,1.62-0.32,2.4c-0.17-0.03-0.35-0.05-0.53-0.05c-1.93,0-3.5,1.57-3.5,3.5  c0,0.6,0.17,1.17,0.44,1.66c-1.53,1.07-3.37,1.66-5.26,1.66c-5.05,0-9.17-4.11-9.17-9.17s4.11-9.17,9.17-9.17  c1.18,0,2.32,0.22,3.4,0.65c0.51,0.2,1.09-0.04,1.3-0.56c0.21-0.51-0.04-1.09-0.56-1.3c-1.32-0.53-2.71-0.79-4.14-0.79  c-6.16,0-11.17,5.01-11.17,11.17S23.84,41.17,30,41.17c2.42,0,4.77-0.79,6.7-2.24c0.49,0.26,1.03,0.42,1.62,0.42  c1.93,0,3.5-1.57,3.5-3.5c0-1.02-0.45-1.93-1.15-2.57c0.32-1.06,0.5-2.15,0.5-3.27c0-2.65-0.92-5.15-2.6-7.15l3.48-3.48  c2.6,2.94,4.04,6.67,4.04,10.63c0,8.87-7.21,16.08-16.08,16.08c-8.87,0-16.08-7.21-16.08-16.08c0-3.11,0.88-6.09,2.55-8.68  c0.4,0.16,0.84,0.26,1.3,0.26c1.93,0,3.5-1.57,3.5-3.5c0-0.49-0.1-0.96-0.29-1.38c2.67-1.81,5.76-2.78,9.02-2.78  c2.97,0,5.88,0.82,8.4,2.36c0.47,0.29,1.09,0.14,1.38-0.33s0.14-1.09-0.33-1.38c-2.83-1.74-6.1-2.66-9.44-2.66  c-3.73,0-7.28,1.13-10.31,3.24c-0.55-0.36-1.21-0.58-1.92-0.58c-1.93,0-3.5,1.57-3.5,3.5c0,0.74,0.24,1.43,0.63,1.99  c-1.94,2.95-2.98,6.36-2.98,9.92c0,9.97,8.11,18.08,18.08,18.08c9.97,0,18.08-8.11,18.08-18.08c0-4.49-1.65-8.73-4.62-12.05  l3.48-3.48C50.84,18.73,53,24.19,53,30c0,12.68-10.32,23-23,23c-5.02,0-9.92-1.68-13.9-4.7c0.2-0.44,0.32-0.93,0.32-1.44  c0-1.93-1.57-3.5-3.5-3.5c-0.5,0-0.97,0.11-1.4,0.3C8.57,39.68,7,34.99,7,30C7,17.32,17.32,7,30,7c4.81,0,9.42,1.47,13.33,4.25  c0.45,0.32,1.07,0.21,1.39-0.23c0.32-0.45,0.22-1.07-0.23-1.39C40.24,6.6,35.23,5,30,5C16.21,5,5,16.21,5,30  c0,5.38,1.78,10.65,4.99,14.95c-0.36,0.55-0.57,1.2-0.57,1.91c0,1.93,1.57,3.5,3.5,3.5c0.69,0,1.32-0.21,1.86-0.55  C19.13,53.15,24.5,55,30,55c13.79,0,25-11.21,25-25c0-6.68-2.6-12.96-7.32-17.68C47.29,11.93,46.65,11.93,46.26,12.32z M38.32,37.34  c-0.83,0-1.5-0.67-1.5-1.5s0.67-1.5,1.5-1.5s1.5,0.67,1.5,1.5S39.14,37.34,38.32,37.34z M17.77,16.58c0.83,0,1.5,0.67,1.5,1.5  s-0.67,1.5-1.5,1.5s-1.5-0.67-1.5-1.5S16.94,16.58,17.77,16.58z M11.42,46.86c0-0.83,0.67-1.5,1.5-1.5s1.5,0.67,1.5,1.5  c0,0.41-0.16,0.78-0.43,1.05c0,0,0,0,0,0s0,0,0,0c-0.27,0.28-0.65,0.45-1.07,0.45C12.09,48.36,11.42,47.68,11.42,46.86z M30,32.25  c-1.24,0-2.25-1.01-2.25-2.25s1.01-2.25,2.25-2.25c0.62,0,1.18,0.25,1.59,0.66c0,0,0,0,0,0s0,0,0,0c0.41,0.41,0.66,0.97,0.66,1.59  C32.25,31.24,31.24,32.25,30,32.25z"/></svg>