<svg xmlns="http://www.w3.org/2000/svg" xmlns:xlink="http://www.w3.org/1999/xlink" version="1.1" x="0px" y="0px" viewBox="0 0 60 75" style="enable-background:new 0 0 60 60;" xml:space="preserve"><path d="M9.66,45.66l-1.03,6c-0.06,0.38,0.09,0.75,0.4,0.98c0.31,0.22,0.72,0.25,1.05,0.08l5.38-2.83l5.39,2.83  c0.15,0.08,0.31,0.11,0.46,0.11c0.21,0,0.41-0.06,0.59-0.19c0.31-0.22,0.46-0.6,0.4-0.98l-1.03-6l4.36-4.25  c0.02-0.02,0.03-0.04,0.05-0.07c0.03-0.03,0.06-0.07,0.09-0.11c9.83-15.16,28.08-15.96,28.26-15.97c0.47-0.02,0.86-0.36,0.95-0.82  c0.08-0.46-0.16-0.92-0.59-1.1l-10.12-4.28l3.71-10.56c0.12-0.34,0.05-0.71-0.18-0.98c-0.23-0.27-0.59-0.4-0.94-0.33  C24.7,11.22,14.87,32.71,14.56,33.39l-2.69,5.44L5.86,39.7c-0.38,0.05-0.69,0.32-0.81,0.68c-0.12,0.36-0.02,0.76,0.25,1.02  L9.66,45.66z M45.51,9.51l-3.44,9.78c-0.17,0.5,0.07,1.05,0.55,1.25l7.49,3.16c-6.08,1.04-17.96,4.51-25.64,15.9l-4.44-0.65  c1.77-2.81,6.55-9.74,13.32-14.45c0.45-0.32,0.57-0.94,0.25-1.39c-0.32-0.45-0.94-0.56-1.39-0.25  c-6.95,4.84-11.78,11.71-13.73,14.79l-1.9-3.86C17.96,30.96,26.97,13.79,45.51,9.51z M12.69,40.73c0.33-0.05,0.61-0.25,0.75-0.55  l2.03-4.11l2.03,4.11c0.02,0.05,0.06,0.09,0.09,0.14c0.01,0.02,0.02,0.03,0.03,0.05c0.07,0.09,0.16,0.16,0.26,0.22  c0.01,0.01,0.02,0.02,0.03,0.02c0.02,0.01,0.03,0.01,0.05,0.02c0.04,0.02,0.08,0.04,0.13,0.05c0.04,0.01,0.07,0.02,0.11,0.03  c0.02,0,0.03,0.01,0.05,0.01l4.54,0.66l-3.28,3.2c-0.24,0.23-0.34,0.56-0.29,0.88l0.77,4.52l-4.06-2.13  c-0.15-0.08-0.3-0.11-0.46-0.11s-0.32,0.04-0.47,0.11l-4.06,2.13l0.77-4.52c0.06-0.32-0.05-0.66-0.29-0.88l-3.28-3.2L12.69,40.73z"/></svg>