<svg xmlns="http://www.w3.org/2000/svg" xmlns:xlink="http://www.w3.org/1999/xlink" version="1.1" x="0px" y="0px" viewBox="0 0 60 75" style="enable-background:new 0 0 60 60;" xml:space="preserve"><path d="M31.57,55c9.7,0,18.63-5.29,23.31-13.81c0.21-0.39,0.14-0.87-0.17-1.19s-0.8-0.38-1.19-0.17c-3.6,1.97-7.68,3.02-11.8,3.02  c-13.55,0-24.57-11.02-24.57-24.57c0-4.12,1.04-8.2,3.02-11.8c0.21-0.39,0.14-0.87-0.17-1.19c-0.31-0.31-0.8-0.38-1.19-0.17  C10.29,9.8,5,18.73,5,28.43C5,43.08,16.92,55,31.57,55z M16.94,8.69c-1.18,3.04-1.79,6.3-1.79,9.59c0,14.65,11.92,26.57,26.57,26.57  c3.28,0,6.54-0.61,9.59-1.79c-4.6,6.2-11.9,9.94-19.74,9.94C18.02,53,7,41.98,7,28.43C7,20.59,10.74,13.29,16.94,8.69z"/></svg>