<svg xmlns="http://www.w3.org/2000/svg" xmlns:xlink="http://www.w3.org/1999/xlink" version="1.1" x="0px" y="0px" viewBox="0 0 60 75" style="enable-background:new 0 0 60 60;" xml:space="preserve"><path d="M49.09,15.15l-0.84,0.84C51.33,19.99,53,24.86,53,30c0,12.68-10.32,23-23,23c-4.35,0-8.61-1.24-12.26-3.54  c-0.31,0.6-0.75,1.13-1.26,1.56C20.49,53.61,25.2,55,30,55c13.78,0,25-11.22,25-25c0-5.71-1.9-11.13-5.41-15.53  C49.46,14.71,49.29,14.94,49.09,15.15z"/><path d="M7,30C7,17.31,17.32,7,30,7c4.81,0,9.42,1.47,13.33,4.25c0.45,0.32,1.07,0.21,1.39-0.24c0.32-0.45,0.22-1.07-0.23-1.39  C40.24,6.6,35.23,5,30,5C16.21,5,5,16.21,5,30c0,4.68,1.33,9.28,3.79,13.22c0.44-0.5,0.97-0.93,1.57-1.24C8.15,38.39,7,34.3,7,30z"/><path d="M11.91,30c0,9.97,8.12,18.08,18.09,18.08c9.97,0,18.08-8.11,18.08-18.08c0-3.82-1.17-7.45-3.35-10.49l-1.44,1.44  c1.82,2.64,2.79,5.77,2.79,9.05c0,8.87-7.21,16.08-16.08,16.08S13.91,38.87,13.91,30c0-2.43,0.54-4.78,1.57-6.92  c-0.63-0.28-1.19-0.68-1.66-1.17C12.56,24.41,11.91,27.15,11.91,30z"/><path d="M39.44,14.57c-2.83-1.74-6.1-2.66-9.44-2.66c-3.02,0-5.91,0.73-8.52,2.13c0.5,0.45,0.91,1,1.21,1.62  c2.25-1.15,4.73-1.75,7.31-1.75c2.97,0,5.87,0.82,8.39,2.37c0.47,0.28,1.09,0.14,1.38-0.33C40.06,15.47,39.91,14.86,39.44,14.57z"/><path d="M41.11,31.11c0.04-0.37,0.06-0.74,0.06-1.11c0-1.96-0.5-3.84-1.44-5.49l-1.48,1.48c0.6,1.23,0.92,2.6,0.92,4.01  c0,0.14,0,0.28-0.02,0.41C39.86,30.51,40.52,30.76,41.11,31.11z"/><path d="M30,41.16c1.67,0,3.31-0.38,4.8-1.09c-0.53-0.45-0.98-1-1.31-1.61c-1.1,0.46-2.28,0.7-3.49,0.7c-5.06,0-9.17-4.11-9.17-9.16  c0-5.06,4.11-9.17,9.17-9.17c1.17,0,2.32,0.22,3.4,0.65c0.51,0.21,1.1-0.04,1.3-0.56c0.21-0.51-0.04-1.09-0.56-1.29  c-1.32-0.53-2.71-0.8-4.14-0.8c-6.16,0-11.17,5.01-11.17,11.17C18.83,36.15,23.84,41.16,30,41.16z"/><path d="M47.67,12.32c-0.39-0.39-1.02-0.39-1.41,0L32.2,26.38c-0.64-0.39-1.39-0.63-2.2-0.63c-2.35,0-4.25,1.9-4.25,4.25  c0,2.34,1.9,4.25,4.25,4.25c2.34,0,4.25-1.91,4.25-4.25c0-0.81-0.24-1.56-0.63-2.21l14.06-14.06  C48.07,13.34,48.07,12.71,47.67,12.32z"/><circle cx="17.76" cy="18.08" r="3.5"/><circle cx="38.32" cy="35.84" r="3.5"/><circle cx="12.91" cy="46.85" r="3.5"/></svg>