<svg xmlns="http://www.w3.org/2000/svg" xmlns:xlink="http://www.w3.org/1999/xlink" version="1.1" x="0px" y="0px" viewBox="0 0 60 75" style="enable-background:new 0 0 60 60;" xml:space="preserve"><path d="M44.66,28.16c0-0.27-0.11-0.52-0.29-0.71L23.64,6.72c-0.01-0.01-0.03-0.02-0.04-0.03c-0.08-0.07-0.17-0.13-0.27-0.18  c-0.01,0-0.02-0.01-0.03-0.02c-0.09-0.04-0.19-0.06-0.29-0.07L6.08,5C5.79,4.98,5.5,5.08,5.29,5.29C5.08,5.5,4.98,5.79,5,6.08  l1.43,16.93c0.01,0.1,0.03,0.2,0.07,0.29c0.01,0.01,0.02,0.03,0.02,0.04c0.04,0.09,0.1,0.18,0.17,0.25  c0.01,0.01,0.02,0.03,0.03,0.04l20.73,20.73c0.2,0.2,0.45,0.29,0.71,0.29s0.51-0.1,0.71-0.29l3.29-3.29l1.47,8.22  c0.07,0.37,0.33,0.67,0.68,0.78c0.1,0.03,0.2,0.05,0.3,0.05c0.26,0,0.52-0.1,0.71-0.29l1.35-1.35l2.27,2.27  c0.2,0.2,0.45,0.29,0.71,0.29s0.51-0.1,0.71-0.29c0.39-0.39,0.39-1.02,0-1.41l-2.27-2.27l3.78-3.78l3.79,3.79  c0.2,0.2,0.45,0.29,0.71,0.29s0.51-0.1,0.71-0.29c0.39-0.39,0.39-1.02,0-1.41l-3.79-3.79l3.78-3.78l2.27,2.27  c0.2,0.2,0.45,0.29,0.71,0.29s0.51-0.1,0.71-0.29c0.39-0.39,0.39-1.02,0-1.41l-2.27-2.27l1.35-1.35c0.26-0.26,0.36-0.65,0.25-1.01  c-0.11-0.36-0.41-0.62-0.78-0.69l-8.22-1.47l3.29-3.29C44.56,28.68,44.66,28.43,44.66,28.16z M36.23,22.14l-2.11,2.11l-7.77-7.77  l2.11-2.11L36.23,22.14z M20.7,8.24l-6.23,6.23L8.24,20.7L7.1,7.1L20.7,8.24z M14.38,28.46l2.11-2.11l7.77,7.77l-2.11,2.11  L14.38,28.46z M47.07,35.26l-11.1,11.1c0,0,0,0,0,0s0,0,0,0l-0.7,0.7l-1.38-7.71l2.74-2.74l2.74-2.74L47.07,35.26z M38.31,32.1  C38.31,32.1,38.31,32.1,38.31,32.1l-3.11,3.11l-7.04,7.04l-4.6-4.6l2.82-2.82c0.39-0.39,0.39-1.02,0-1.41l-9.18-9.18  c-0.39-0.39-1.02-0.39-1.41,0l-2.82,2.82l-4.12-4.12l7.04-7.04l7.04-7.04l4.12,4.12l-2.82,2.82c-0.39,0.39-0.39,1.02,0,1.41  l9.18,9.18c0.19,0.19,0.44,0.29,0.71,0.29s0.52-0.11,0.71-0.29l2.82-2.82l4.61,4.61L38.31,32.1z"/><path d="M54.71,44.31c0.39-0.39,0.39-1.02,0-1.41l-1.15-1.15c-0.39-0.39-1.02-0.39-1.41,0c-0.39,0.39-0.39,1.02,0,1.41l1.15,1.15  c0.2,0.2,0.45,0.29,0.71,0.29S54.51,44.51,54.71,44.31z"/><path d="M41.74,52.14c-0.39,0.39-0.39,1.02,0,1.41l1.15,1.16c0.2,0.2,0.45,0.29,0.71,0.29s0.51-0.1,0.71-0.29  c0.39-0.39,0.39-1.02,0-1.41l-1.15-1.16C42.77,51.75,42.13,51.75,41.74,52.14z"/><path d="M49.19,49.19c-0.39,0.39-0.39,1.02,0,1.41l2.43,2.43c0.2,0.2,0.45,0.29,0.71,0.29s0.51-0.1,0.71-0.29  c0.39-0.39,0.39-1.02,0-1.41l-2.43-2.43C50.21,48.8,49.58,48.8,49.19,49.19z"/></svg>