<svg xmlns="http://www.w3.org/2000/svg" xmlns:xlink="http://www.w3.org/1999/xlink" version="1.1" x="0px" y="0px" viewBox="0 0 60 75" style="enable-background:new 0 0 60 60;" xml:space="preserve"><path d="M38.57,7c7.14,0,12.95,5.81,12.95,12.95c0,0.55,0.45,1,1,1s1-0.45,1-1C53.52,11.71,46.82,5,38.57,5c-0.55,0-1,0.45-1,1  S38.02,7,38.57,7z"/><path d="M38.57,12.04c4.37,0,7.92,3.55,7.92,7.92c0,0.55,0.45,1,1,1s1-0.45,1-1c0-5.47-4.45-9.92-9.92-9.92c-0.55,0-1,0.45-1,1  S38.02,12.04,38.57,12.04z"/><path d="M7.48,55h22.97c0.35,0,0.67-0.18,0.85-0.47c0.18-0.29,0.2-0.66,0.04-0.97l-2.94-5.88c0.57,0.05,1.14,0.08,1.71,0.08  c4.96,0,9.91-1.89,13.69-5.66c0.39-0.39,0.39-1.02,0-1.41l-8.43-8.43l2.59-7.48c0.2,0.03,0.41,0.06,0.61,0.06  c1.25,0,2.5-0.48,3.45-1.43c0.92-0.92,1.43-2.15,1.43-3.45c0-1.3-0.51-2.53-1.43-3.45c-0.92-0.92-2.15-1.43-3.45-1.43  s-2.53,0.51-3.45,1.43c-1.11,1.11-1.55,2.62-1.37,4.06l-7.48,2.59l-8.43-8.43c-0.38-0.38-1.04-0.38-1.41,0  c-6.57,6.57-7.42,16.73-2.54,24.24l-7.3,14.6c-0.16,0.31-0.14,0.68,0.04,0.97C6.81,54.82,7.13,55,7.48,55z M36.53,17.91  c0.54-0.54,1.27-0.84,2.04-0.84s1.49,0.3,2.04,0.84c0.54,0.54,0.84,1.27,0.84,2.04c0,0.77-0.3,1.49-0.84,2.04c0,0,0,0,0,0  c-1.12,1.12-2.95,1.12-4.07,0C35.41,20.87,35.41,19.04,36.53,17.91z M34.4,22.45c0.2,0.34,0.43,0.66,0.72,0.95  c0.29,0.29,0.61,0.52,0.95,0.72l-2.27,6.55l-5.96-5.96L34.4,22.45z M17.15,16.86l24.51,24.51c-6.81,6.07-17.29,5.84-23.82-0.69  C11.31,34.15,11.08,23.67,17.15,16.86z M15.22,40.76c0.38,0.46,0.78,0.91,1.21,1.33c2.72,2.72,6.05,4.44,9.55,5.2l2.85,5.7H9.1  L15.22,40.76z"/></svg>