<svg xmlns="http://www.w3.org/2000/svg" xmlns:xlink="http://www.w3.org/1999/xlink" version="1.1" x="0px" y="0px" viewBox="0 0 60 75" style="enable-background:new 0 0 60 60;" xml:space="preserve"><path d="M45.65,10.52c-0.02-0.02-0.03-0.05-0.06-0.06c-0.02-0.01-0.03-0.01-0.05-0.02C41.27,7.04,35.87,5,30,5  C18.33,5,8.51,13.04,5.76,23.86c0,0.01,0,0.02-0.01,0.03C5.26,25.85,5,27.89,5,30c0,0.3,0.01,0.6,0.02,0.9c0,0.01,0,0.01,0,0.02  c0,0.01,0,0.01,0,0.02c0.17,4.58,1.58,8.85,3.9,12.48c0.02,0.05,0.05,0.09,0.08,0.13c1.83,2.83,4.22,5.28,7.01,7.17  c0.02,0.02,0.04,0.03,0.06,0.04C20.06,53.43,24.85,55,30,55c13.79,0,25-11.21,25-25C55,22.13,51.34,15.11,45.65,10.52z M30,7  c2.7,0,5.29,0.47,7.7,1.33c-0.74,0.83-1.95,2.09-3.66,3.54c-0.42,0.36-0.47,0.99-0.12,1.41c0.2,0.23,0.48,0.35,0.76,0.35  c0.23,0,0.46-0.08,0.65-0.24c2.2-1.87,3.62-3.43,4.32-4.26c1.39,0.65,2.71,1.43,3.93,2.33c-1.78,2.2-7.51,8.67-16.54,13.3  c-0.49,0.25-0.69,0.85-0.43,1.35c0.18,0.34,0.53,0.54,0.89,0.54c0.15,0,0.31-0.04,0.46-0.11c9.46-4.86,15.3-11.48,17.18-13.83  c1.51,1.32,2.85,2.84,3.97,4.51C47.49,20.4,37.05,38.6,10.33,41.91c-1.8-2.97-2.95-6.37-3.25-10.02c4.12-0.09,8.19-0.71,12.14-1.86  c0.53-0.15,0.83-0.71,0.68-1.24c-0.15-0.53-0.71-0.83-1.24-0.68c-3.79,1.1-7.71,1.68-11.66,1.77c0.01-1.65,0.19-3.26,0.53-4.81  c5.44-0.62,10.64-1.98,15.47-4.07c0.51-0.22,0.74-0.81,0.52-1.32c-0.22-0.51-0.81-0.74-1.31-0.52c-4.41,1.91-9.15,3.19-14.11,3.82  C11.06,13.73,19.76,7,30,7z M30,53c-3.74,0-7.28-0.9-10.4-2.5c3.17-0.58,6.23-1.37,9.1-2.36c0.52-0.18,0.8-0.75,0.62-1.27  c-0.18-0.52-0.75-0.8-1.27-0.62c-3.47,1.2-7.21,2.09-11.11,2.66c-2.05-1.42-3.86-3.16-5.35-5.15c24.73-3.45,35.74-19.33,38.72-24.55  c1.16,2.17,1.97,4.54,2.39,7.05c-0.43,0.9-2.11,4.15-5.62,7.91c-0.38,0.4-0.35,1.04,0.05,1.41c0.19,0.18,0.44,0.27,0.68,0.27  c0.27,0,0.53-0.11,0.73-0.32c2.04-2.19,3.48-4.19,4.46-5.74c0,0.06,0,0.13,0,0.19C53,42.68,42.68,53,30,53z"/><path d="M30.01,17.11c0.19,0,0.38-0.05,0.55-0.16c0.82-0.53,1.62-1.09,2.39-1.66c0.44-0.33,0.54-0.96,0.21-1.4  c-0.33-0.44-0.96-0.54-1.4-0.21c-0.74,0.55-1.51,1.08-2.29,1.6c-0.46,0.3-0.59,0.92-0.29,1.38C29.37,16.95,29.69,17.11,30.01,17.11z  "/><path d="M40.48,39.93c-2.31,1.64-4.83,3.1-7.5,4.33c-0.5,0.23-0.72,0.83-0.49,1.33c0.17,0.37,0.53,0.58,0.91,0.58  c0.14,0,0.28-0.03,0.42-0.09c2.78-1.29,5.41-2.81,7.82-4.52c0.45-0.32,0.56-0.94,0.24-1.39C41.55,39.71,40.93,39.61,40.48,39.93z"/></svg>