<svg xmlns="http://www.w3.org/2000/svg" xmlns:xlink="http://www.w3.org/1999/xlink" version="1.1" x="0px" y="0px" viewBox="0 0 60 75" style="enable-background:new 0 0 60 60;" xml:space="preserve"><path d="M42.72,30.83c-2.71,0-4.92,2-4.92,4.46c0,2.46,2.21,4.46,4.92,4.46s4.92-2,4.92-4.46C47.64,32.83,45.43,30.83,42.72,30.83z   M42.72,37.75c-1.61,0-2.92-1.1-2.92-2.46s1.31-2.46,2.92-2.46c1.61,0,2.92,1.1,2.92,2.46S44.33,37.75,42.72,37.75z"/><path d="M52.96,20.12C52.96,20.11,52.96,20.11,52.96,20.12C49.12,11.23,40.27,5,30,5C16.21,5,5,16.21,5,30s11.21,25,25,25  c2.68,0,5.27-0.43,7.69-1.22c0.04-0.01,0.07-0.02,0.11-0.04C47.78,50.46,55,41.06,55,30c0-3.5-0.73-6.84-2.04-9.87  C52.96,20.12,52.96,20.12,52.96,20.12z M47.47,15.07c1.31,1.53,2.43,3.24,3.31,5.08c-0.73,0.28-1.56,0.43-2.43,0.43  c-2.52,0-4.65-1.28-4.65-2.79C43.69,16.48,45.35,15.32,47.47,15.07z M7,30C7,17.32,17.32,7,30,7c1.45,0,2.86,0.14,4.24,0.4  c-3.89,1.84-7.27,4.67-9.77,8.2c-0.35-0.07-0.71-0.11-1.08-0.11c-2.63,0-4.76,1.72-4.76,3.84c0,1.42,0.97,2.64,2.39,3.31  c-0.73,2.38-1.13,4.85-1.13,7.36c0,9.8,5.66,18.52,14.35,22.6C32.85,52.86,31.44,53,30,53C17.32,53,7,42.68,7,30z M20.62,19.33  c0-1,1.26-1.84,2.76-1.84c0.4,0,0.79,0.06,1.16,0.17c0.96,0.31,1.6,0.98,1.6,1.66c0,1-1.26,1.84-2.76,1.84S20.62,20.33,20.62,19.33z   M37.44,51.76C28.12,48.58,21.88,39.88,21.88,30c0-2.35,0.37-4.65,1.06-6.87c0.15,0.01,0.29,0.04,0.44,0.04  c2.63,0,4.76-1.72,4.76-3.84c0-1.19-0.66-2.27-1.75-2.98c2.78-3.75,6.65-6.6,11.05-8.11c3.17,1.09,6.02,2.84,8.4,5.11  c-2.46,0.71-4.15,2.42-4.15,4.44c0,2.69,2.92,4.79,6.65,4.79c1.13,0,2.24-0.21,3.21-0.59C52.49,24.49,53,27.18,53,30  C53,40.08,46.48,48.66,37.44,51.76z"/><path d="M29.53,26.78c-2.29,0-4.15,1.86-4.15,4.15s1.86,4.15,4.15,4.15s4.15-1.86,4.15-4.15S31.82,26.78,29.53,26.78z M29.53,33.08  c-1.19,0-2.15-0.97-2.15-2.15s0.97-2.15,2.15-2.15s2.15,0.97,2.15,2.15S30.71,33.08,29.53,33.08z"/></svg>