<svg xmlns="http://www.w3.org/2000/svg" xmlns:xlink="http://www.w3.org/1999/xlink" version="1.1" x="0px" y="0px" viewBox="0 0 60 75" style="enable-background:new 0 0 60 60;" xml:space="preserve"><path d="M14.38,41.15c0.67,0,1.36-0.02,2.06-0.07c2.43,3.09,5.77,5.23,9.43,6.22c0.11,0.06,0.23,0.08,0.36,0.1  c1.42,0.35,2.89,0.54,4.37,0.54c2.03,0,4.08-0.34,6.06-1.06c3.39-1.23,6.23-3.44,8.29-6.22c0.12-0.1,0.22-0.24,0.28-0.39  c2.16-3.1,3.36-6.86,3.24-10.78c0.35-0.26,0.71-0.52,1.05-0.78c4.38-3.48,6.19-6.7,5.25-9.31c-1.11-3.07-5.94-4.36-13.25-3.55  c-0.09-0.07-0.18-0.15-0.27-0.22c-0.01-0.01-0.02-0.03-0.04-0.04c-0.01-0.01-0.03-0.01-0.04-0.02c-1.79-1.31-3.81-2.27-5.95-2.85  c-0.02-0.01-0.03-0.01-0.05-0.01c-3.42-0.92-7.15-0.84-10.72,0.46c-3.59,1.3-6.5,3.64-8.54,6.55c0,0-0.01,0.01-0.01,0.01  c-1.27,1.82-2.21,3.85-2.75,6c0,0.02-0.02,0.03-0.02,0.05c0,0.02,0,0.04,0,0.06c-0.03,0.12-0.05,0.24-0.07,0.36  c-6.07,4.05-8.92,8.11-7.81,11.16C6.21,40.03,9.71,41.15,14.38,41.15z M35.98,44.99c-2.4,0.87-4.93,1.12-7.37,0.81  c1.93-1.48,4.07-2.65,6.39-3.5c2.32-0.84,4.72-1.31,7.15-1.42C40.48,42.69,38.38,44.12,35.98,44.99z M43.76,38.88  c-3.21-0.07-6.38,0.45-9.44,1.55c-3.05,1.1-5.8,2.75-8.22,4.86c-2.73-0.79-5.24-2.31-7.22-4.44c4.51-0.55,9.58-1.82,14.36-3.55  c4.97-1.8,9.54-4.03,13.22-6.42C46.29,33.77,45.34,36.53,43.76,38.88z M12.75,32.16c0.11,0.94,0.31,1.88,0.58,2.82  c-0.97-0.23-1.4-0.57-1.5-0.84C11.7,33.79,11.93,33.11,12.75,32.16z M17.33,21.14c0.19,0,0.39,0.01,0.58,0.01  c3.02,0,5.99-0.52,8.86-1.57c3.05-1.1,5.8-2.75,8.22-4.86c1.45,0.42,2.83,1.05,4.11,1.86c-2.85,3.37-6.53,5.94-10.72,7.46  c-4.18,1.52-8.66,1.9-13.01,1.14C15.84,23.75,16.49,22.39,17.33,21.14z M15.49,35.21c-0.93-2.68-1.09-5.45-0.6-8.07  c1.6,0.29,3.21,0.44,4.83,0.44c3.17,0,6.33-0.55,9.35-1.65c4.56-1.65,8.56-4.47,11.65-8.16c2.06,1.71,3.72,3.95,4.73,6.62  c-0.46,0.39-1,0.81-1.64,1.27c-3.13,2.22-7.59,4.42-12.54,6.22s-9.79,2.95-13.61,3.26C16.83,35.2,16.12,35.22,15.49,35.21z   M46.97,22.84c-0.41-0.93-0.88-1.81-1.42-2.64c1.32,0.2,1.96,0.59,2.09,0.95C47.74,21.44,47.62,22.01,46.97,22.84z M25.12,15.02  c2.44-0.89,4.96-1.12,7.38-0.82c-1.94,1.48-4.08,2.66-6.4,3.5c-2.33,0.84-4.73,1.31-7.16,1.42C20.59,17.34,22.67,15.91,25.12,15.02z   M12.65,28.89c-0.01,0.19-0.01,0.39-0.02,0.59c-2.32,2.02-3.23,3.82-2.68,5.34c0.58,1.59,2.54,2.4,5.84,2.4  c0.63,0,1.3-0.03,2.03-0.09c4-0.32,9.02-1.52,14.13-3.37c5.12-1.85,9.74-4.15,13.01-6.47c3.71-2.62,5.25-4.92,4.56-6.81  c-0.56-1.54-2.44-2.33-5.58-2.38c-0.13-0.14-0.26-0.29-0.39-0.43c5.1-0.31,8.67,0.58,9.33,2.41c0.6,1.65-1.13,4.29-4.61,7.06  c-3.87,3.07-9.45,6.02-15.71,8.29C19.07,40.31,8.32,40,7.11,36.66C6.46,34.84,8.6,31.9,12.65,28.89z"/></svg>