<svg xmlns="http://www.w3.org/2000/svg" xmlns:xlink="http://www.w3.org/1999/xlink" version="1.1" x="0px" y="0px" viewBox="0 0 60 75" style="enable-background:new 0 0 60 60;" xml:space="preserve"><path d="M30,5c-6.8,0-12.97,2.73-17.48,7.15c-0.04,0.03-0.07,0.06-0.1,0.1c-2.09,2.07-3.81,4.5-5.07,7.19  c-0.01,0.02-0.03,0.04-0.04,0.06c-0.01,0.01,0,0.03-0.01,0.04C5.83,22.73,5,26.27,5,30c0,13.79,11.21,25,25,25  c8.27,0,15.61-4.04,20.16-10.24c0.03-0.05,0.07-0.09,0.1-0.14c1.56-2.15,2.79-4.56,3.6-7.16c0,0,0-0.01,0-0.01c0,0,0,0,0,0  C54.6,35.1,55,32.59,55,30C55,16.21,43.79,5,30,5z M13.46,14.04c2.12,0.4,3.66,1.48,3.66,2.65c0,1.33-2.21,2.81-5.38,2.81  c-0.72,0-1.42-0.09-2.08-0.24C10.69,17.34,11.97,15.59,13.46,14.04z M48.91,43.07c-1.95-0.39-3.41-1.4-3.41-2.45  c0-1.24,2.13-2.63,5.19-2.63c0.29,0,0.57,0.02,0.86,0.05C50.87,39.84,49.98,41.52,48.91,43.07z M52.17,36.11  C51.68,36.04,51.19,36,50.69,36c-4.03,0-7.19,2.03-7.19,4.63c0,1.85,1.62,3.43,4.09,4.17C43.37,49.81,37.05,53,30,53  C17.32,53,7,42.68,7,30c0-3.15,0.64-6.16,1.79-8.89c0.93,0.26,1.93,0.39,2.96,0.39c4.14,0,7.38-2.11,7.38-4.81  c0-1.86-1.55-3.47-3.93-4.27C19.2,9.04,24.36,7,30,7c12.68,0,23,10.32,23,23C53,32.11,52.71,34.16,52.17,36.11z"/><path d="M26.94,35.71c-3.89,0-7.06,2.45-7.06,5.46s3.17,5.46,7.06,5.46S34,44.18,34,41.17S30.83,35.71,26.94,35.71z M26.94,44.63  c-2.74,0-5.06-1.58-5.06-3.46s2.32-3.46,5.06-3.46S32,39.29,32,41.17S29.68,44.63,26.94,44.63z"/><path d="M36.19,18.13C32.16,18.13,29,20.27,29,23s3.16,4.88,7.19,4.88s7.19-2.14,7.19-4.88S40.22,18.13,36.19,18.13z M36.19,25.88  C33.13,25.88,31,24.36,31,23s2.13-2.88,5.19-2.88s5.19,1.52,5.19,2.88S39.24,25.88,36.19,25.88z"/></svg>