<svg xmlns="http://www.w3.org/2000/svg" xmlns:xlink="http://www.w3.org/1999/xlink" version="1.1" x="0px" y="0px" viewBox="0 0 60 75" style="enable-background:new 0 0 60 60;" xml:space="preserve"><path d="M38.83,6.61C38.8,6.6,38.78,6.6,38.75,6.59C36.03,5.56,33.08,5,30,5C16.21,5,5,16.21,5,30s11.21,25,25,25  c3.04,0,5.96-0.55,8.66-1.55c0.03-0.01,0.06-0.03,0.1-0.04C48.23,49.86,55,40.71,55,30C55,19.32,48.27,10.19,38.83,6.61z M7,30  C7,17.32,17.32,7,30,7c1.91,0,3.77,0.24,5.55,0.68C27.22,11.89,21.78,20.53,21.78,30s5.44,18.11,13.77,22.32  C33.77,52.76,31.91,53,30,53C17.32,53,7,42.68,7,30z M38.39,51.41C29.64,47.98,23.78,39.43,23.78,30s5.86-17.98,14.61-21.41  C46.93,11.95,53,20.28,53,30S46.93,48.05,38.39,51.41z"/><path d="M39.99,30c0,2.28,2.47,4.06,5.63,4.06s5.63-1.78,5.63-4.06s-2.47-4.06-5.63-4.06S39.99,27.72,39.99,30z M49.24,30  c0,0.98-1.49,2.06-3.63,2.06s-3.63-1.09-3.63-2.06s1.49-2.06,3.63-2.06S49.24,29.02,49.24,30z"/><path d="M36.51,36c-2.27,0-4.13,1.85-4.13,4.13s1.85,4.13,4.13,4.13s4.13-1.85,4.13-4.13S38.78,36,36.51,36z M36.51,42.25  c-1.17,0-2.13-0.95-2.13-2.13S35.34,38,36.51,38s2.13,0.95,2.13,2.13S37.68,42.25,36.51,42.25z"/><path d="M39.63,22.16c2.27,0,4.13-1.85,4.13-4.13s-1.85-4.13-4.13-4.13s-4.13,1.85-4.13,4.13S37.36,22.16,39.63,22.16z M39.63,15.91  c1.17,0,2.13,0.95,2.13,2.13s-0.95,2.13-2.13,2.13s-2.13-0.95-2.13-2.13S38.46,15.91,39.63,15.91z"/><path d="M36,26.94c0-2.27-1.85-4.13-4.13-4.13s-4.13,1.85-4.13,4.13s1.85,4.13,4.13,4.13S36,29.21,36,26.94z M31.88,29.06  c-1.17,0-2.13-0.95-2.13-2.13s0.95-2.13,2.13-2.13S34,25.77,34,26.94S33.05,29.06,31.88,29.06z"/></svg>