<svg xmlns="http://www.w3.org/2000/svg" xmlns:xlink="http://www.w3.org/1999/xlink" version="1.1" x="0px" y="0px" viewBox="0 0 60 75" style="enable-background:new 0 0 60 60;" xml:space="preserve"><path d="M43.94,14.66C40.39,11.72,35.9,9.88,31,9.65c-0.53-1.8-2.17-3.14-4.14-3.14c-2.4-0.01-4.36,1.93-4.37,4.33  c0,0.04,0.01,0.07,0.01,0.11c-2.36,0.86-4.51,2.08-6.38,3.61c-5.22-0.68-8.91,0.32-10.4,2.87c-1.51,2.6-0.41,6.36,2.64,10.44  c-0.2,1.18-0.31,2.38-0.31,3.6c0,1.22,0.09,2.41,0.28,3.57c-3.21,4.19-4.18,7.89-2.71,10.46c1.2,2.09,3.87,3.1,7.48,3.12  c0.91,0,1.88-0.06,2.89-0.18c3.78,3.14,8.63,5.04,13.91,5.06c5.28,0.02,10.14-1.84,13.94-4.94c1.04,0.14,2.03,0.23,2.94,0.23  c3.68,0.01,6.27-1.04,7.47-3.09c1.49-2.55,0.54-6.26-2.64-10.48c0.2-1.16,0.3-2.35,0.31-3.57c0-1.21-0.09-2.39-0.28-3.55  c3.2-4.15,4.22-7.85,2.71-10.48C52.88,15.05,49.19,14.01,43.94,14.66z M26.85,8.51c1.3,0,2.35,1.06,2.34,2.36  c0,1.3-1.06,2.35-2.36,2.34c-1.3,0-2.35-1.06-2.34-2.36S25.55,8.5,26.85,8.51z M26.82,15.21c2.12,0.01,3.89-1.52,4.28-3.53  c9.11,0.51,16.6,7.16,18.4,15.85c-1.22,1.5-2.75,3.06-4.53,4.63c-0.73-0.56-1.63-0.91-2.62-0.91c-2.4-0.01-4.36,1.93-4.37,4.33  c0,0.58,0.11,1.12,0.32,1.63c-1.22,0.8-2.47,1.58-3.76,2.32c-1.57,0.9-3.1,1.7-4.6,2.42c-1.53-0.74-3.06-1.56-4.58-2.45  c-6.76-3.93-11.8-8.25-14.87-12.07c0.91-4.33,3.21-8.19,6.51-11.01c0.03-0.02,0.06-0.05,0.09-0.07c1.73-1.46,3.73-2.63,5.93-3.45  C23.75,14.26,25.17,15.2,26.82,15.21z M39.99,35.59c0-1.3,1.06-2.35,2.36-2.34s2.35,1.06,2.34,2.36c0,1.3-1.06,2.35-2.36,2.34  C41.04,37.95,39.99,36.89,39.99,35.59z M7.45,18.43c0.89-1.54,3.29-2.25,6.7-2.06c-2.4,2.5-4.18,5.56-5.18,8.93  C7.12,22.43,6.55,19.98,7.45,18.43z M24.35,41.23c1.09,0.63,2.18,1.22,3.27,1.78c-4.07,1.77-7.8,2.87-10.93,3.36  c-4.08-3.67-6.66-8.98-6.64-14.89c0-0.49,0.03-0.98,0.06-1.47C13.49,33.81,18.41,37.76,24.35,41.23z M7.35,44.51  c-0.88-1.54-0.3-3.98,1.57-6.84c0.99,3.4,2.78,6.46,5.15,8.96C10.65,46.8,8.24,46.06,7.35,44.51z M18.71,47.99  c3.41-0.7,7.24-1.99,11.23-3.84c3.88,1.83,7.7,3.17,11.18,3.93c-3.2,2.17-7.06,3.43-11.21,3.41C25.76,51.48,21.9,50.18,18.71,47.99z   M52.52,44.68c-0.9,1.55-3.31,2.25-6.72,2.06c2.38-2.48,4.19-5.52,5.2-8.9C52.84,40.7,53.41,43.14,52.52,44.68z M49.92,31.63  c-0.02,5.9-2.63,11.18-6.73,14.82c-0.04-0.01-0.08-0.01-0.12-0.02c-3.3-0.56-6.99-1.73-10.8-3.4c1.08-0.55,2.17-1.14,3.27-1.76  c1.35-0.77,2.66-1.59,3.93-2.43c0.76,0.68,1.76,1.11,2.86,1.11c2.4,0.01,4.36-1.93,4.37-4.33c0-0.69-0.17-1.33-0.45-1.91  c1.35-1.19,2.56-2.36,3.61-3.51C49.88,30.68,49.92,31.15,49.92,31.63z M51.04,25.44c-0.99-3.39-2.78-6.44-5.15-8.95  c3.42-0.17,5.83,0.56,6.72,2.11C53.52,20.18,52.89,22.63,51.04,25.44z"/></svg>